<?xml version="1.0" encoding="UTF-8"?>
<!DOCTYPE svg PUBLIC "-//W3C//DTD SVG 1.1//EN" "http://www.w3.org/Graphics/SVG/1.1/DTD/svg11.dtd">
<svg xmlns="http://www.w3.org/2000/svg" version="1.1" width="512px" height="512px" style="shape-rendering:geometricPrecision; text-rendering:geometricPrecision; image-rendering:optimizeQuality; fill-rule:evenodd; clip-rule:evenodd" xmlns:xlink="http://www.w3.org/1999/xlink">
<g><path style="opacity:1" fill="#fefefe" d="M -0.5,-0.5 C 170.167,-0.5 340.833,-0.5 511.5,-0.5C 511.5,170.167 511.5,340.833 511.5,511.5C 340.833,511.5 170.167,511.5 -0.5,511.5C -0.5,340.833 -0.5,170.167 -0.5,-0.5 Z"/></g>
<g><path style="opacity:1" fill="#74b0db" d="M 107.5,42.5 C 103.105,44.5622 100.105,47.8955 98.5,52.5C 97.3734,53.1217 96.3734,53.955 95.5,55C 93.9343,55.765 92.6009,55.5983 91.5,54.5C 90.0709,51.5366 90.5709,48.8699 93,46.5C 99.3418,39.9914 105.842,33.658 112.5,27.5C 114.973,23.4021 118.14,22.4021 122,24.5C 123.445,27.0904 124.612,29.757 125.5,32.5C 140.612,28.6378 155.612,24.3045 170.5,19.5C 175.763,20.8475 176.43,23.3475 172.5,27C 156.989,32.6727 141.156,37.506 125,41.5C 119.519,40.6377 118.019,37.6377 120.5,32.5C 119.448,32.3505 118.448,32.5172 117.5,33C 114.271,36.3986 110.938,39.5653 107.5,42.5 Z"/></g>
<g><path style="opacity:1" fill="#a8abb6" d="M 272.5,71.5 C 273.5,73.1667 274.833,74.5 276.5,75.5C 274.575,80.2402 271.742,84.2402 268,87.5C 245.937,76.2183 223.77,65.0517 201.5,54C 200.465,52.4931 200.632,50.9931 202,49.5C 204.088,46.8872 206.254,44.3872 208.5,42C 205.479,37.8425 204.479,33.3425 205.5,28.5C 196.728,28.4541 188.228,27.4541 180,25.5C 179.217,23.5665 179.717,22.0665 181.5,21C 191.866,20.2742 202.199,20.6075 212.5,22C 213.081,22.8926 213.415,23.8926 213.5,25C 211.859,28.3453 211.359,31.8453 212,35.5C 217.979,40.4872 217.479,44.4872 210.5,47.5C 210.215,49.288 210.548,50.9547 211.5,52.5C 228.044,60.9387 244.711,69.1053 261.5,77C 267.958,80.3025 271.624,78.4692 272.5,71.5 Z"/></g>
<g><path style="opacity:1" fill="#bbd8ee" d="M 112.5,27.5 C 105.842,33.658 99.3418,39.9914 93,46.5C 90.5709,48.8699 90.0709,51.5366 91.5,54.5C 90.3065,54.0296 89.6399,53.0296 89.5,51.5C 89.6221,49.2088 90.4554,47.2088 92,45.5C 96.8333,42 101,37.8333 104.5,33C 107.065,30.9205 109.732,29.0872 112.5,27.5 Z"/></g>
<g><path style="opacity:1" fill="#b5d4ed" d="M 107.5,42.5 C 104.471,45.859 101.471,49.1924 98.5,52.5C 100.105,47.8955 103.105,44.5622 107.5,42.5 Z"/></g>
<g><path style="opacity:1" fill="#6bb65d" d="M 335.5,74.5 C 336.11,75.391 336.443,76.391 336.5,77.5C 335.658,80.8668 333.658,83.2002 330.5,84.5C 314.976,78.3782 299.142,73.0449 283,68.5C 280.611,70.7184 278.445,73.0517 276.5,75.5C 274.833,74.5 273.5,73.1667 272.5,71.5C 273.428,67.6379 274.928,63.9712 277,60.5C 277.739,59.4258 278.739,58.7591 280,58.5C 294.5,63.3333 309,68.1667 323.5,73C 327.418,74.1564 331.418,74.6564 335.5,74.5 Z"/></g>
<g><path style="opacity:1" fill="#a6a9b2" d="M 336.5,77.5 C 336.443,76.391 336.11,75.391 335.5,74.5C 334.781,72.305 335.781,70.805 338.5,70C 340.377,69.4242 342.211,69.5909 344,70.5C 351.744,75.5726 357.244,82.4059 360.5,91C 358.909,93.7957 356.909,94.1291 354.5,92C 351.993,87.3181 348.993,82.9848 345.5,79C 342.607,77.8512 339.607,77.3512 336.5,77.5 Z"/></g>
<g><path style="opacity:1" fill="#76b0db" d="M 85.5,57.5 C 86.8221,57.33 87.9887,57.6634 89,58.5C 94.4325,67.3549 93.5992,75.5215 86.5,83C 68.5805,90.0855 56.2472,102.585 49.5,120.5C 45.5648,122.42 43.2314,121.254 42.5,117C 43.6296,114.593 44.463,112.093 45,109.5C 47,106.167 49,102.833 51,99.5C 54.8405,95.9921 58.3405,92.1588 61.5,88C 68.6979,82.9702 76.0312,78.1369 83.5,73.5C 83.8333,72.8333 84.1667,72.1667 84.5,71.5C 83.7545,68.6848 83.0879,65.8515 82.5,63C 82.8627,60.8077 83.8627,58.9744 85.5,57.5 Z"/></g>
<g><path style="opacity:1" fill="#1e507a" d="M 127.5,106.5 C 150.836,106.333 174.169,106.5 197.5,107C 199,108.5 200.5,110 202,111.5C 202.667,126.5 202.667,141.5 202,156.5C 200.833,157.667 199.667,158.833 198.5,160C 192.5,160.333 186.5,160.667 180.5,161C 175.313,165.688 169.98,170.188 164.5,174.5C 163.808,169.952 163.141,165.452 162.5,161C 152.483,160.27 142.483,160.437 132.5,161.5C 127.967,161.651 124.8,159.651 123,155.5C 122.167,140.489 122.334,125.489 123.5,110.5C 124.549,108.784 125.882,107.451 127.5,106.5 Z"/></g>
<g><path style="opacity:1" fill="#e8edf1" d="M 186.5,135.5 C 184.858,137.081 182.858,137.747 180.5,137.5C 177.855,134.783 177.855,131.95 180.5,129C 183.308,128.08 185.475,128.913 187,131.5C 187.765,133.066 187.598,134.399 186.5,135.5 Z"/></g>
<g><path style="opacity:1" fill="#f4f7f8" d="M 146.5,135.5 C 140.46,139.288 137.794,137.622 138.5,130.5C 143.599,128.141 146.266,129.807 146.5,135.5 Z"/></g>
<g><path style="opacity:1" fill="#f4f6f8" d="M 159.5,129.5 C 165.21,128.867 167.21,131.201 165.5,136.5C 159.296,137.958 157.296,135.625 159.5,129.5 Z"/></g>
<g><path style="opacity:1" fill="#7f9cb4" d="M 138.5,130.5 C 137.794,137.622 140.46,139.288 146.5,135.5C 146.586,136.496 146.252,137.329 145.5,138C 137.987,139.992 135.654,137.492 138.5,130.5 Z"/></g>
<g><path style="opacity:1" fill="#7191ac" d="M 186.5,135.5 C 186.586,136.496 186.252,137.329 185.5,138C 183.613,138.78 181.946,138.613 180.5,137.5C 182.858,137.747 184.858,137.081 186.5,135.5 Z"/></g>
<g><path style="opacity:1" fill="#73aeda" d="M 40.5,127.5 C 42.5,127.5 44.5,127.5 46.5,127.5C 46.093,145.045 46.7596,162.545 48.5,180C 48.3333,182.833 48.1667,185.667 48,188.5C 45.5984,191.258 43.5984,190.925 42,187.5C 40.6141,181.904 39.6141,176.237 39,170.5C 38.3333,156.833 38.3333,143.167 39,129.5C 39.7172,128.956 40.2172,128.289 40.5,127.5 Z"/></g>
<g><path style="opacity:1" fill="#a4b8c9" d="M 130.5,179.5 C 133.781,179.42 136.781,180.087 139.5,181.5C 136.219,181.58 133.219,180.913 130.5,179.5 Z"/></g>
<g><path style="opacity:1" fill="#20517a" d="M 130.5,179.5 C 133.219,180.913 136.219,181.58 139.5,181.5C 171.733,190.398 190.066,211.398 194.5,244.5C 205.226,242.339 213.06,246.005 218,255.5C 218.167,263.167 218.333,270.833 218.5,278.5C 223.112,308.707 210.446,319.873 180.5,312C 176.333,310.5 173.5,307.667 172,303.5C 171.333,286.833 171.333,270.167 172,253.5C 174.678,247.076 179.511,244.076 186.5,244.5C 184.134,224.277 174.467,208.443 157.5,197C 150.144,193.051 142.477,190.218 134.5,188.5C 125.84,185.877 117.173,185.877 108.5,188.5C 79.4861,196.179 62.8195,214.845 58.5,244.5C 65.7006,244.683 70.8673,248.017 74,254.5C 74.1667,262.333 74.3333,270.167 74.5,278C 74.6239,286.905 74.1239,295.738 73,304.5C 69.7011,309.903 64.8677,312.903 58.5,313.5C 56.6545,326.129 60.9879,335.796 71.5,342.5C 71.4249,345.206 71.0916,347.873 70.5,350.5C 66.4556,349.056 62.9556,346.722 60,343.5C 56.644,338.935 54.144,333.935 52.5,328.5C 52.1532,323.32 51.4865,318.32 50.5,313.5C 40.66,315.344 33.3266,312.01 28.5,303.5C 27.3337,286.843 27.1671,270.177 28,253.5C 30.2215,249.612 33.3882,246.779 37.5,245C 42.0855,244.803 46.5855,244.303 51,243.5C 56.1274,209.702 75.2941,188.536 108.5,180C 115.826,179.5 123.159,179.334 130.5,179.5 Z"/></g>
<g><path style="opacity:1" fill="#b2c3d0" d="M 49.5,251.5 C 50.4968,269.659 50.8302,287.992 50.5,306.5C 48.5853,306.784 46.9187,306.451 45.5,305.5C 46.8333,305.5 48.1667,305.5 49.5,305.5C 49.5,287.5 49.5,269.5 49.5,251.5 Z"/></g>
<g><path style="opacity:1" fill="#fbfcfc" d="M 194.5,251.5 C 198.182,251.335 201.848,251.501 205.5,252C 207.286,252.785 208.786,253.951 210,255.5C 210.667,270.833 210.667,286.167 210,301.5C 208.786,303.049 207.286,304.215 205.5,305C 201.848,305.499 198.182,305.665 194.5,305.5C 194.5,287.5 194.5,269.5 194.5,251.5 Z"/></g>
<g><path style="opacity:1" fill="#fafbfc" d="M 184.5,251.5 C 185.5,251.5 186.5,251.5 187.5,251.5C 187.5,269.5 187.5,287.5 187.5,305.5C 183.507,305.755 180.674,304.089 179,300.5C 178.167,285.156 178.334,269.822 179.5,254.5C 181.145,253.304 182.811,252.304 184.5,251.5 Z"/></g>
<g><path style="opacity:1" fill="#f0f3f6" d="M 57.5,251.5 C 61.548,251.441 64.7146,253.108 67,256.5C 67.6667,270.833 67.6667,285.167 67,299.5C 65.5518,304.144 62.3851,306.144 57.5,305.5C 57.5,287.5 57.5,269.5 57.5,251.5 Z"/></g>
<g><path style="opacity:1" fill="#f9fafb" d="M 49.5,251.5 C 49.5,269.5 49.5,287.5 49.5,305.5C 48.1667,305.5 46.8333,305.5 45.5,305.5C 40.561,306.648 37.061,304.981 35,300.5C 34.3333,285.833 34.3333,271.167 35,256.5C 35.7845,254.714 36.9512,253.214 38.5,252C 42.1516,251.501 45.8183,251.335 49.5,251.5 Z"/></g>
<g><path style="opacity:1" fill="#a3b7c7" d="M 134.5,188.5 C 125.839,187.277 117.172,187.277 108.5,188.5C 117.173,185.877 125.84,185.877 134.5,188.5 Z"/></g>
<g><path style="opacity:1" fill="#a9abb4" d="M 221.5,303.5 C 222.675,303.281 223.675,303.614 224.5,304.5C 234.632,319.633 236.132,335.633 229,352.5C 225.323,359.189 221.656,365.856 218,372.5C 217.647,376.609 218.814,380.276 221.5,383.5C 219.338,387.29 217.005,387.29 214.5,383.5C 212.503,380.84 210.836,378.006 209.5,375C 216.911,364.12 222.411,352.286 226,339.5C 226.667,334.833 226.667,330.167 226,325.5C 223.833,319.167 221.667,312.833 219.5,306.5C 220.193,305.482 220.859,304.482 221.5,303.5 Z"/></g>
<g><path style="opacity:1" fill="#98adc1" d="M 50.5,313.5 C 51.4865,318.32 52.1532,323.32 52.5,328.5C 50.7623,323.783 50.0956,318.783 50.5,313.5 Z"/></g>
<g><path style="opacity:1" fill="#488830" d="M 70.5,350.5 C 71.0916,347.873 71.4249,345.206 71.5,342.5C 73.2391,339.59 75.5724,337.09 78.5,335C 87.1667,334.333 95.8333,334.333 104.5,335C 114.761,338.691 118.261,345.857 115,356.5C 113.221,360.612 110.388,363.778 106.5,366C 97.1489,366.832 87.8155,366.665 78.5,365.5C 72.9074,361.978 70.2407,356.978 70.5,350.5 Z"/></g>
<g><path style="opacity:1" fill="#f3f7f2" d="M 79.5,340.5 C 88.2756,340.059 96.9422,340.559 105.5,342C 109.367,345.66 110.534,350.16 109,355.5C 107.457,357.378 105.624,358.878 103.5,360C 95.5,360.667 87.5,360.667 79.5,360C 77.039,357.173 76.039,353.84 76.5,350C 76.0093,346.246 77.0093,343.079 79.5,340.5 Z"/></g>
<g><path style="opacity:1" fill="#75b694" d="M 441.5,360.5 C 446.5,361.156 448.167,363.822 446.5,368.5C 436.58,375.043 426.747,381.71 417,388.5C 416.334,400.829 414.001,412.829 410,424.5C 408.291,427.418 406.458,430.252 404.5,433C 403.056,433.781 401.723,433.614 400.5,432.5C 399.456,430.232 399.289,427.899 400,425.5C 405.124,411.969 408.124,397.969 409,383.5C 417.231,377.606 425.731,372.106 434.5,367C 436.485,364.361 438.819,362.194 441.5,360.5 Z"/></g>
<g><path style="opacity:1" fill="#a6aab4" d="M 353.5,407.5 C 353.201,403.868 351.201,401.868 347.5,401.5C 355.433,393.418 364.433,386.585 374.5,381C 382.557,375.209 390.39,369.042 398,362.5C 399.488,364.295 400.154,366.295 400,368.5C 395.582,373.271 390.749,377.437 385.5,381C 375.635,387.425 365.968,394.091 356.5,401C 354.081,402.509 353.081,404.675 353.5,407.5 Z"/></g>
<g><path style="opacity:1" fill="#7eb3d9" d="M 347.5,401.5 C 351.201,401.868 353.201,403.868 353.5,407.5C 358.615,417.73 358.615,428.064 353.5,438.5C 350.758,439.633 348.758,438.799 347.5,436C 350.394,425.102 349.394,414.602 344.5,404.5C 344.868,402.825 345.868,401.825 347.5,401.5 Z"/></g>
<g><path style="opacity:1" fill="#a8abb6" d="M 258.5,481.5 C 256.5,481.5 254.5,481.5 252.5,481.5C 249.308,474.438 245.808,467.438 242,460.5C 239.083,457.626 236.75,454.293 235,450.5C 234.625,445.79 233.958,441.123 233,436.5C 228.44,422.684 223.94,408.851 219.5,395C 220.981,394.02 222.315,392.853 223.5,391.5C 224.478,391.977 225.311,392.643 226,393.5C 230.035,406.988 234.368,420.321 239,433.5C 240.726,439.032 241.726,444.699 242,450.5C 245.102,455.718 248.435,460.718 252,465.5C 255.025,470.541 257.192,475.874 258.5,481.5 Z"/></g>
<g><path style="opacity:1" fill="#a9adb8" d="M 338.5,439.5 C 340.701,439.858 342.035,441.192 342.5,443.5C 337.365,457.124 329.032,468.291 317.5,477C 313.613,480.03 309.28,481.03 304.5,480C 303.14,478.062 303.473,476.396 305.5,475C 312.27,472.444 318.27,468.611 323.5,463.5C 328.87,455.707 333.87,447.707 338.5,439.5 Z"/></g>
<g><path style="opacity:1" fill="#70aeda" d="M 252.5,481.5 C 254.5,481.5 256.5,481.5 258.5,481.5C 259.952,482.302 261.618,482.802 263.5,483C 274.493,483.777 285.493,484.444 296.5,485C 297.766,485.309 298.933,485.809 300,486.5C 300.18,488.488 300.014,490.488 299.5,492.5C 283.403,492.326 267.403,491.16 251.5,489C 248.595,485.926 248.928,483.426 252.5,481.5 Z"/></g>
</svg>
