<?xml version="1.0" encoding="UTF-8"?>
<!DOCTYPE svg PUBLIC "-//W3C//DTD SVG 1.1//EN" "http://www.w3.org/Graphics/SVG/1.1/DTD/svg11.dtd">
<svg xmlns="http://www.w3.org/2000/svg" version="1.1" width="1040px" height="472px" style="shape-rendering:geometricPrecision; text-rendering:geometricPrecision; image-rendering:optimizeQuality; fill-rule:evenodd; clip-rule:evenodd" xmlns:xlink="http://www.w3.org/1999/xlink">
<g><path style="opacity:1" fill="#d3e6f2" d="M 142.5,23.5 C 141.174,19.1757 138.507,18.1757 134.5,20.5C 138.408,17.2274 141.408,17.8941 143.5,22.5C 143.376,23.1067 143.043,23.44 142.5,23.5 Z"/></g>
<g><path style="opacity:1" fill="#f6f6f7" d="M 165.5,20.5 C 159.077,20.2088 152.744,20.5422 146.5,21.5C 149.258,20.1818 152.424,19.5152 156,19.5C 159.352,19.5018 162.518,19.8351 165.5,20.5 Z"/></g>
<g><path style="opacity:1" fill="#7db4dc" d="M 142.5,23.5 C 142.489,25.0174 141.823,26.1841 140.5,27C 125.65,32.0058 110.65,36.5058 95.5,40.5C 93.2723,39.7814 91.439,38.448 90,36.5C 90.3333,34.8333 90.6667,33.1667 91,31.5C 87.3332,34.3355 83.8332,37.3355 80.5,40.5C 76.5,42.5 73.5,45.5 71.5,49.5C 71.1667,50.5 70.5,51.1667 69.5,51.5C 65.3228,52.1584 63.8228,50.4918 65,46.5C 72.1667,39.3333 79.3333,32.1667 86.5,25C 88.7856,23.3364 91.1189,23.1697 93.5,24.5C 96.0442,25.7079 97.3775,27.7079 97.5,30.5C 103.173,29.164 108.839,27.8307 114.5,26.5C 121.535,25.4123 128.201,23.4123 134.5,20.5C 138.507,18.1757 141.174,19.1757 142.5,23.5 Z"/></g>
<g><path style="opacity:1" fill="#f5f5f6" d="M 167.5,20.5 C 179.01,18.5789 181.677,22.2456 175.5,31.5C 176.639,28.5752 177.139,25.5752 177,22.5C 173.73,21.868 170.563,21.2014 167.5,20.5 Z"/></g>
<g><path style="opacity:1" fill="#c1dcee" d="M 134.5,20.5 C 128.201,23.4123 121.535,25.4123 114.5,26.5C 120.891,23.898 127.557,21.898 134.5,20.5 Z"/></g>
<g><path style="opacity:1" fill="#f2f3f4" d="M 146.5,21.5 C 146.421,22.9305 146.754,24.2638 147.5,25.5C 152.651,26.1668 157.651,26.8335 162.5,27.5C 157.125,27.8282 151.792,27.4948 146.5,26.5C 144.497,24.4192 144.497,22.7526 146.5,21.5 Z"/></g>
<g><path style="opacity:1" fill="#f3f4f5" d="M 175.5,32.5 C 181.025,35.8909 181.691,39.8909 177.5,44.5C 177.877,42.742 178.544,41.0754 179.5,39.5C 178.111,37.1324 176.778,34.7991 175.5,32.5 Z"/></g>
<g><path style="opacity:1" fill="#c0dbef" d="M 93.5,24.5 C 91.1189,23.1697 88.7856,23.3364 86.5,25C 79.3333,32.1667 72.1667,39.3333 65,46.5C 63.8228,50.4918 65.3228,52.1584 69.5,51.5C 66.0987,53.3371 63.7654,52.3371 62.5,48.5C 70.5188,38.3143 79.6855,29.3143 90,21.5C 91.7286,21.9743 92.8953,22.9743 93.5,24.5 Z"/></g>
<g><path style="opacity:1" fill="#f4f4f5" d="M 170.5,37.5 C 172.273,38.3143 172.773,39.6476 172,41.5C 169.768,42.843 167.934,44.5097 166.5,46.5C 166.351,45.448 166.517,44.448 167,43.5C 170.344,42.4046 171.51,40.4046 170.5,37.5 Z"/></g>
<g><path style="opacity:1" fill="#b9d7ee" d="M 80.5,40.5 C 77.8333,43.8333 74.8333,46.8333 71.5,49.5C 73.5,45.5 76.5,42.5 80.5,40.5 Z"/></g>
<g><path style="opacity:1" fill="#f3f4f6" d="M 166.5,51.5 C 169.992,52.4097 172.992,54.0764 175.5,56.5C 172.008,55.5903 169.008,53.9236 166.5,51.5 Z"/></g>
<g><path style="opacity:1" fill="#cae0f1" d="M 66.5,69.5 C 66.2024,63.9402 64.5358,58.9402 61.5,54.5C 59.4042,55.5919 58.0708,57.2586 57.5,59.5C 58.6594,62.7849 59.1594,66.1182 59,69.5C 57.5123,71.16 55.679,72.16 53.5,72.5C 55.3271,71.0681 56.9937,69.4014 58.5,67.5C 56.9101,63.9637 56.4101,60.297 57,56.5C 58.7859,53.6384 61.1192,52.9717 64,54.5C 64.7138,57.5945 65.7138,60.5945 67,63.5C 67.7891,65.7116 67.6225,67.7116 66.5,69.5 Z"/></g>
<g><path style="opacity:1" fill="#f3f4f5" d="M 176.5,45.5 C 175.438,46.5754 175.438,47.5754 176.5,48.5C 187.051,53.6077 197.385,58.941 207.5,64.5C 196.625,60.0639 185.958,55.0639 175.5,49.5C 175.167,48.8333 174.833,48.1667 174.5,47.5C 174.747,46.2867 175.414,45.62 176.5,45.5 Z"/></g>
<g><path style="opacity:1" fill="#b4daad" d="M 241.5,56.5 C 239.801,56.3398 238.134,56.5065 236.5,57C 235.672,58.9923 234.339,60.4923 232.5,61.5C 233.48,58.8839 234.98,56.5506 237,54.5C 238.622,55.0989 240.122,55.7656 241.5,56.5 Z"/></g>
<g><path style="opacity:1" fill="#70b862" d="M 241.5,56.5 C 252.619,59.4286 263.619,62.762 274.5,66.5C 276.385,68.3115 278.719,69.4782 281.5,70C 283.387,70.7796 285.054,70.6129 286.5,69.5C 286.833,69.5 287.167,69.5 287.5,69.5C 289.28,70.9899 289.946,72.9899 289.5,75.5C 286.889,79.9872 283.556,80.6539 279.5,77.5C 272.363,73.675 264.697,71.0083 256.5,69.5C 255.209,69.7373 254.209,69.404 253.5,68.5C 249.064,65.7843 244.398,64.7843 239.5,65.5C 238.248,67.0009 237.248,68.6675 236.5,70.5C 232.2,70.1847 230.533,67.8514 231.5,63.5C 231.328,62.5084 231.662,61.8417 232.5,61.5C 234.339,60.4923 235.672,58.9923 236.5,57C 238.134,56.5065 239.801,56.3398 241.5,56.5 Z"/></g>
<g><path style="opacity:1" fill="#aeb1bb" d="M 165.5,20.5 C 166.167,20.5 166.833,20.5 167.5,20.5C 170.563,21.2014 173.73,21.868 177,22.5C 177.139,25.5752 176.639,28.5752 175.5,31.5C 175.5,31.8333 175.5,32.1667 175.5,32.5C 176.778,34.7991 178.111,37.1324 179.5,39.5C 178.544,41.0754 177.877,42.742 177.5,44.5C 177.5,45.1667 177.167,45.5 176.5,45.5C 175.414,45.62 174.747,46.2867 174.5,47.5C 174.833,48.1667 175.167,48.8333 175.5,49.5C 185.958,55.0639 196.625,60.0639 207.5,64.5C 211.151,65.6589 214.485,67.3256 217.5,69.5C 220.794,72.7392 224.628,73.7392 229,72.5C 230.009,70.9751 230.509,69.3084 230.5,67.5C 230.232,65.901 230.566,64.5676 231.5,63.5C 230.533,67.8514 232.2,70.1847 236.5,70.5C 236.158,71.3382 235.492,71.6716 234.5,71.5C 232.774,73.9422 231.274,76.6089 230,79.5C 228.89,81.0368 227.39,81.7035 225.5,81.5C 208.558,73.6956 191.891,65.3623 175.5,56.5C 172.992,54.0764 169.992,52.4097 166.5,51.5C 165.244,51.5386 164.244,51.0386 163.5,50C 164.636,48.8549 165.636,47.6883 166.5,46.5C 167.934,44.5097 169.768,42.843 172,41.5C 172.773,39.6476 172.273,38.3143 170.5,37.5C 167.38,35.1218 166.713,32.1218 168.5,28.5C 166.379,28.6747 164.379,28.3414 162.5,27.5C 157.651,26.8335 152.651,26.1668 147.5,25.5C 146.754,24.2638 146.421,22.9305 146.5,21.5C 152.744,20.5422 159.077,20.2088 165.5,20.5 Z"/></g>
<g><path style="opacity:1" fill="#b3d7ac" d="M 239.5,65.5 C 244.398,64.7843 249.064,65.7843 253.5,68.5C 248.833,67.5 244.167,66.5 239.5,65.5 Z"/></g>
<g><path style="opacity:1" fill="#eef1ef" d="M 295.5,65.5 C 291.981,65.2593 289.315,66.5926 287.5,69.5C 287.167,69.5 286.833,69.5 286.5,69.5C 286.167,69.5 285.833,69.5 285.5,69.5C 287.884,65.2944 291.217,63.961 295.5,65.5 Z"/></g>
<g><path style="opacity:1" fill="#a7aab3" d="M 295.5,65.5 C 303.839,70.1771 309.173,77.1771 311.5,86.5C 311.217,87.2891 310.717,87.9558 310,88.5C 308.348,87.6006 306.848,86.6006 305.5,85.5C 303.96,79.9638 300.627,75.9638 295.5,73.5C 293.114,73.2587 291.114,73.9254 289.5,75.5C 289.946,72.9899 289.28,70.9899 287.5,69.5C 289.315,66.5926 291.981,65.2593 295.5,65.5 Z"/></g>
<g><path style="opacity:1" fill="#f2f3f4" d="M 295.5,65.5 C 303.452,68.6207 308.952,74.2874 312,82.5C 312.765,84.0657 312.598,85.3991 311.5,86.5C 309.173,77.1771 303.839,70.1771 295.5,65.5 Z"/></g>
<g><path style="opacity:1" fill="#bddeb6" d="M 274.5,66.5 C 278.11,67.7033 281.777,68.7033 285.5,69.5C 285.833,69.5 286.167,69.5 286.5,69.5C 285.054,70.6129 283.387,70.7796 281.5,70C 278.719,69.4782 276.385,68.3115 274.5,66.5 Z"/></g>
<g><path style="opacity:1" fill="#add5a5" d="M 256.5,69.5 C 264.697,71.0083 272.363,73.675 279.5,77.5C 271.609,75.2041 263.942,72.5375 256.5,69.5 Z"/></g>
<g><path style="opacity:1" fill="#79b1dc" d="M 66.5,69.5 C 66.3577,72.617 65.0244,75.117 62.5,77C 53.6017,81.2754 45.6017,86.7754 38.5,93.5C 36.9826,93.5106 35.8159,94.1772 35,95.5C 32.4543,98.8597 30.6209,102.526 29.5,106.5C 28.2745,107.937 27.2745,109.604 26.5,111.5C 24.081,112.895 22.081,112.395 20.5,110C 21.6687,107.993 22.3354,105.827 22.5,103.5C 22.461,100.911 23.461,98.911 25.5,97.5C 30.0992,91.562 35.0992,85.8953 40.5,80.5C 45.0086,78.0809 49.342,75.4143 53.5,72.5C 55.679,72.16 57.5123,71.16 59,69.5C 59.1594,66.1182 58.6594,62.7849 57.5,59.5C 58.0708,57.2586 59.4042,55.5919 61.5,54.5C 64.5358,58.9402 66.2024,63.9402 66.5,69.5 Z"/></g>
<g><path style="opacity:1" fill="#f3f3f5" d="M 230.5,67.5 C 230.509,69.3084 230.009,70.9751 229,72.5C 224.628,73.7392 220.794,72.7392 217.5,69.5C 220.462,70.0609 223.295,71.0609 226,72.5C 227.962,71.2385 229.462,69.5719 230.5,67.5 Z"/></g>
<g><path style="opacity:1" fill="#f3f3f5" d="M 295.5,73.5 C 300.627,75.9638 303.96,79.9638 305.5,85.5C 302.573,81.2328 299.24,77.2328 295.5,73.5 Z"/></g>
<g><path style="opacity:1" fill="#bfd9ed" d="M 53.5,72.5 C 49.342,75.4143 45.0086,78.0809 40.5,80.5C 43.9879,76.5832 48.3212,73.9166 53.5,72.5 Z"/></g>
<g><path style="opacity:1" fill="#f2f2f4" d="M 234.5,71.5 C 233.649,76.2011 231.482,80.2011 228,83.5C 227.005,82.9341 226.172,82.2674 225.5,81.5C 227.39,81.7035 228.89,81.0368 230,79.5C 231.274,76.6089 232.774,73.9422 234.5,71.5 Z"/></g>
<g><path style="opacity:1" fill="#bbd8ed" d="M 40.5,80.5 C 35.0992,85.8953 30.0992,91.562 25.5,97.5C 28.727,90.2728 33.727,84.6061 40.5,80.5 Z"/></g>
<g><path style="opacity:1" fill="#25547d" d="M 132.5,161.5 C 131.833,157.5 131.167,153.5 130.5,149.5C 119.828,149.667 109.161,149.5 98.5,149C 97.0692,148.535 95.9025,147.701 95,146.5C 93.8659,139.1 93.3659,131.6 93.5,124C 93.3659,116.4 93.8659,108.9 95,101.5C 95.7504,100.874 96.5838,100.374 97.5,100C 118.485,98.6216 139.485,98.2882 160.5,99C 163.573,99.7386 165.74,101.572 167,104.5C 167.964,118.594 167.631,132.594 166,146.5C 164.745,147.211 163.579,148.044 162.5,149C 157.167,149.333 151.833,149.667 146.5,150C 141.96,154.046 137.293,157.879 132.5,161.5 Z M 109.5,120.5 C 114.651,120.654 115.984,122.82 113.5,127C 108.57,127.427 107.237,125.26 109.5,120.5 Z M 131.5,120.5 C 132.942,121.82 133.608,123.486 133.5,125.5C 132.18,126.942 130.514,127.608 128.5,127.5C 126.81,125.577 126.477,123.577 127.5,121.5C 128.708,120.766 130.041,120.433 131.5,120.5 Z M 145.5,121.5 C 148.542,119.785 150.875,120.452 152.5,123.5C 151.988,126.532 150.322,127.699 147.5,127C 145.845,125.556 145.178,123.722 145.5,121.5 Z"/></g>
<g><path style="opacity:1" fill="#c3ddf0" d="M 38.5,93.5 C 35.2407,97.6964 32.2407,102.03 29.5,106.5C 30.6209,102.526 32.4543,98.8597 35,95.5C 35.8159,94.1772 36.9826,93.5106 38.5,93.5 Z"/></g>
<g><path style="opacity:1" fill="#c9e1f2" d="M 22.5,103.5 C 22.3354,105.827 21.6687,107.993 20.5,110C 22.081,112.395 24.081,112.895 26.5,111.5C 27.2745,109.604 28.2745,107.937 29.5,106.5C 29.5969,112.173 26.9303,114.339 21.5,113C 19.3053,109.687 19.6386,106.521 22.5,103.5 Z"/></g>
<g><path style="opacity:1" fill="#92abbf" d="M 108.5,119.5 C 115.61,118.904 117.61,121.737 114.5,128C 112.231,128.758 110.064,128.591 108,127.5C 107.278,124.739 107.445,122.073 108.5,119.5 Z M 109.5,120.5 C 107.237,125.26 108.57,127.427 113.5,127C 115.984,122.82 114.651,120.654 109.5,120.5 Z"/></g>
<g><path style="opacity:1" fill="#94acbf" d="M 131.5,120.5 C 132.496,120.414 133.329,120.748 134,121.5C 134.765,123.066 134.598,124.399 133.5,125.5C 133.608,123.486 132.942,121.82 131.5,120.5 Z"/></g>
<g><path style="opacity:1" fill="#aebac7" d="M 428.5,123.5 C 424.167,123.5 419.833,123.5 415.5,123.5C 415.5,146.833 415.5,170.167 415.5,193.5C 414.502,170.006 414.169,146.339 414.5,122.5C 419.363,122.181 424.03,122.514 428.5,123.5 Z"/></g>
<g><path style="opacity:1" fill="#1b4f78" d="M 428.5,123.5 C 428.5,146.833 428.5,170.167 428.5,193.5C 424.167,193.5 419.833,193.5 415.5,193.5C 415.5,170.167 415.5,146.833 415.5,123.5C 419.833,123.5 424.167,123.5 428.5,123.5 Z"/></g>
<g><path style="opacity:1" fill="#aebac7" d="M 455.5,123.5 C 451.167,123.5 446.833,123.5 442.5,123.5C 442.5,146.833 442.5,170.167 442.5,193.5C 441.502,170.006 441.169,146.339 441.5,122.5C 446.363,122.181 451.03,122.514 455.5,123.5 Z"/></g>
<g><path style="opacity:1" fill="#1b4f78" d="M 455.5,123.5 C 455.5,146.833 455.5,170.167 455.5,193.5C 451.167,193.5 446.833,193.5 442.5,193.5C 442.5,170.167 442.5,146.833 442.5,123.5C 446.833,123.5 451.167,123.5 455.5,123.5 Z"/></g>
<g><path style="opacity:1" fill="#89a5ba" d="M 127.5,121.5 C 126.477,123.577 126.81,125.577 128.5,127.5C 126.707,127.116 125.707,125.95 125.5,124C 125.639,122.699 126.305,121.866 127.5,121.5 Z"/></g>
<g><path style="opacity:1" fill="#325a81" d="M 339.5,146.5 C 334.695,147.487 329.695,147.821 324.5,147.5C 317.666,138.507 309,136.341 298.5,141C 289.239,149.034 286.739,158.868 291,170.5C 296.751,180.784 305.251,183.951 316.5,180C 319.311,178.356 321.644,176.19 323.5,173.5C 329.137,172.337 334.804,172.17 340.5,173C 331.757,191.2 317.424,197.867 297.5,193C 279.796,185.769 272.296,172.602 275,153.5C 279.982,134.245 292.482,125.079 312.5,126C 325.963,127.055 334.963,133.888 339.5,146.5 Z"/></g>
<g><path style="opacity:1" fill="#325a81" d="M 552.5,146.5 C 547.695,147.487 542.695,147.821 537.5,147.5C 530.666,138.507 522,136.341 511.5,141C 502.239,149.034 499.739,158.868 504,170.5C 509.751,180.784 518.251,183.951 529.5,180C 532.311,178.356 534.644,176.19 536.5,173.5C 542.137,172.337 547.804,172.17 553.5,173C 544.757,191.2 530.424,197.867 510.5,193C 492.796,185.769 485.296,172.602 488,153.5C 492.982,134.245 505.482,125.079 525.5,126C 538.963,127.055 547.963,133.888 552.5,146.5 Z"/></g>
<g><path style="opacity:1" fill="#7696ae" d="M 133.5,125.5 C 133.586,126.496 133.252,127.329 132.5,128C 130.934,128.765 129.601,128.598 128.5,127.5C 130.514,127.608 132.18,126.942 133.5,125.5 Z"/></g>
<g><path style="opacity:1" fill="#84a0b7" d="M 145.5,121.5 C 146.152,120.275 147.319,119.608 149,119.5C 153.625,120.619 154.625,123.286 152,127.5C 145.993,129.323 143.826,127.323 145.5,121.5 Z M 145.5,121.5 C 145.178,123.722 145.845,125.556 147.5,127C 150.322,127.699 151.988,126.532 152.5,123.5C 150.875,120.452 148.542,119.785 145.5,121.5 Z"/></g>
<g><path style="opacity:1" fill="#25547c" d="M 688.5,127.5 C 692.833,127.5 697.167,127.5 701.5,127.5C 701.5,131.833 701.5,136.167 701.5,140.5C 705.5,140.5 709.5,140.5 713.5,140.5C 713.5,144.5 713.5,148.5 713.5,152.5C 709.5,152.5 705.5,152.5 701.5,152.5C 701.083,161.915 701.583,171.248 703,180.5C 706.394,181.456 709.894,181.789 713.5,181.5C 713.5,185.5 713.5,189.5 713.5,193.5C 708.156,193.666 702.823,193.499 697.5,193C 692.011,191.021 689.011,187.188 688.5,181.5C 688.5,171.5 688.5,161.5 688.5,151.5C 686.5,151.5 684.5,151.5 682.5,151.5C 682.5,148.167 682.5,144.833 682.5,141.5C 684.5,141.5 686.5,141.5 688.5,141.5C 688.5,136.833 688.5,132.167 688.5,127.5 Z"/></g>
<g><path style="opacity:1" fill="#2b577e" d="M 387.5,146.5 C 387.783,147.289 388.283,147.956 389,148.5C 389.497,146.19 389.663,143.857 389.5,141.5C 393.833,141.5 398.167,141.5 402.5,141.5C 402.5,158.833 402.5,176.167 402.5,193.5C 398.167,193.5 393.833,193.5 389.5,193.5C 389.663,191.143 389.497,188.81 389,186.5C 388.283,187.044 387.783,187.711 387.5,188.5C 378.518,195.513 368.851,196.346 358.5,191C 347.792,181.345 344.625,169.511 349,155.5C 356.768,139.93 368.602,135.763 384.5,143C 385.71,144.039 386.71,145.206 387.5,146.5 Z M 386.5,176.5 C 384.833,177.5 383.5,178.833 382.5,180.5C 370.429,184.122 363.429,179.622 361.5,167C 363.484,154.186 370.484,149.852 382.5,154C 388.872,160.529 390.205,168.029 386.5,176.5 Z"/></g>
<g><path style="opacity:1" fill="#8b9db1" d="M 402.5,141.5 C 398.167,141.5 393.833,141.5 389.5,141.5C 389.663,143.857 389.497,146.19 389,148.5C 388.283,147.956 387.783,147.289 387.5,146.5C 388.461,144.735 388.795,142.735 388.5,140.5C 393.363,140.181 398.03,140.514 402.5,141.5 Z"/></g>
<g><path style="opacity:1" fill="#2e587f" d="M 612.5,159.5 C 612.5,163.167 612.5,166.833 612.5,170.5C 599.656,170.171 586.989,170.505 574.5,171.5C 575.038,173.117 575.371,174.784 575.5,176.5C 575.427,178.027 576.094,179.027 577.5,179.5C 584.16,183.793 590.494,183.46 596.5,178.5C 601.405,177.555 606.405,177.221 611.5,177.5C 609.017,186.148 603.351,191.648 594.5,194C 567.218,195.331 556.385,182.498 562,155.5C 568.502,142.538 579.002,137.372 593.5,140C 604.095,142.428 610.429,148.928 612.5,159.5 Z M 593.5,152.5 C 594.5,154.167 595.833,155.5 597.5,156.5C 597.328,157.492 597.662,158.158 598.5,158.5C 598.5,159.5 598.5,160.5 598.5,161.5C 590.5,161.5 582.5,161.5 574.5,161.5C 577.777,152.364 584.11,149.364 593.5,152.5 Z"/></g>
<g><path style="opacity:1" fill="#2a567d" d="M 623.5,193.5 C 623.5,176.167 623.5,158.833 623.5,141.5C 627.833,141.5 632.167,141.5 636.5,141.5C 636.5,142.833 636.5,144.167 636.5,145.5C 636.369,146.239 636.536,146.906 637,147.5C 638.376,146.295 639.542,144.962 640.5,143.5C 649.116,138.117 657.782,138.284 666.5,144C 669.944,147.111 672.111,150.944 673,155.5C 673.5,168.162 673.667,180.829 673.5,193.5C 668.833,193.5 664.167,193.5 659.5,193.5C 659.667,182.162 659.5,170.828 659,159.5C 655.489,152.438 649.989,150.272 642.5,153C 639.533,155.1 637.7,157.934 637,161.5C 636.5,172.161 636.333,182.828 636.5,193.5C 632.167,193.5 627.833,193.5 623.5,193.5 Z"/></g>
<g><path style="opacity:1" fill="#2e587f" d="M 771.5,159.5 C 771.5,163.167 771.5,166.833 771.5,170.5C 758.656,170.171 745.989,170.505 733.5,171.5C 734.038,173.117 734.371,174.784 734.5,176.5C 734.427,178.027 735.094,179.027 736.5,179.5C 743.16,183.793 749.494,183.46 755.5,178.5C 760.405,177.555 765.405,177.221 770.5,177.5C 768.017,186.148 762.351,191.648 753.5,194C 726.218,195.331 715.385,182.498 721,155.5C 727.502,142.538 738.002,137.372 752.5,140C 763.095,142.428 769.429,148.928 771.5,159.5 Z M 752.5,152.5 C 753.5,154.167 754.833,155.5 756.5,156.5C 756.328,157.492 756.662,158.158 757.5,158.5C 757.5,159.5 757.5,160.5 757.5,161.5C 749.5,161.5 741.5,161.5 733.5,161.5C 736.777,152.364 743.11,149.364 752.5,152.5 Z"/></g>
<g><path style="opacity:1" fill="#22527a" d="M 781.5,193.5 C 781.5,176.167 781.5,158.833 781.5,141.5C 785.833,141.5 790.167,141.5 794.5,141.5C 794.205,143.735 794.539,145.735 795.5,147.5C 797.167,146.5 798.5,145.167 799.5,143.5C 802.547,140.81 806.213,139.476 810.5,139.5C 810.5,144.5 810.5,149.5 810.5,154.5C 804.199,153.314 799.366,155.314 796,160.5C 794.594,171.436 794.094,182.436 794.5,193.5C 790.167,193.5 785.833,193.5 781.5,193.5 Z"/></g>
<g><path style="opacity:1" fill="#a4b2c1" d="M 636.5,141.5 C 632.167,141.5 627.833,141.5 623.5,141.5C 623.5,158.833 623.5,176.167 623.5,193.5C 622.503,176.008 622.17,158.341 622.5,140.5C 627.363,140.181 632.03,140.514 636.5,141.5 Z"/></g>
<g><path style="opacity:1" fill="#a4b2c1" d="M 794.5,141.5 C 790.167,141.5 785.833,141.5 781.5,141.5C 781.5,158.833 781.5,176.167 781.5,193.5C 780.503,176.008 780.17,158.341 780.5,140.5C 785.363,140.181 790.03,140.514 794.5,141.5 Z"/></g>
<g><path style="opacity:1" fill="#84b7de" d="M 26.5,169.5 C 26.9864,173.509 25.3197,175.342 21.5,175C 20.0035,172.286 19.0035,169.453 18.5,166.5C 17.6805,163.695 17.1805,160.695 17,157.5C 16.3333,145.167 16.3333,132.833 17,120.5C 18.3051,117.694 20.4718,116.86 23.5,118C 25.3419,134.936 26.3419,152.103 26.5,169.5 Z"/></g>
<g><path style="opacity:1" fill="#93a5b8" d="M 640.5,143.5 C 639.542,144.962 638.376,146.295 637,147.5C 636.536,146.906 636.369,146.239 636.5,145.5C 637.605,144.4 638.938,143.733 640.5,143.5 Z"/></g>
<g><path style="opacity:1" fill="#93a4b7" d="M 799.5,143.5 C 798.5,145.167 797.167,146.5 795.5,147.5C 795.833,145.167 797.167,143.833 799.5,143.5 Z"/></g>
<g><path style="opacity:1" fill="#d6dce2" d="M 339.5,146.5 C 340.043,146.56 340.376,146.893 340.5,147.5C 335.014,148.815 329.68,148.815 324.5,147.5C 329.695,147.821 334.695,147.487 339.5,146.5 Z"/></g>
<g><path style="opacity:1" fill="#d6dce2" d="M 552.5,146.5 C 553.043,146.56 553.376,146.893 553.5,147.5C 548.014,148.815 542.68,148.815 537.5,147.5C 542.695,147.821 547.695,147.487 552.5,146.5 Z"/></g>
<g><path style="opacity:1" fill="#a0afc0" d="M 593.5,152.5 C 595.833,152.833 597.167,154.167 597.5,156.5C 595.833,155.5 594.5,154.167 593.5,152.5 Z"/></g>
<g><path style="opacity:1" fill="#c7cfd8" d="M 688.5,127.5 C 688.5,132.167 688.5,136.833 688.5,141.5C 686.5,141.5 684.5,141.5 682.5,141.5C 682.5,144.833 682.5,148.167 682.5,151.5C 684.5,151.5 686.5,151.5 688.5,151.5C 688.5,161.5 688.5,171.5 688.5,181.5C 687.506,172.014 687.173,162.348 687.5,152.5C 685.5,152.5 683.5,152.5 681.5,152.5C 681.5,148.5 681.5,144.5 681.5,140.5C 683.5,140.5 685.5,140.5 687.5,140.5C 687.182,135.968 687.515,131.634 688.5,127.5 Z"/></g>
<g><path style="opacity:1" fill="#a0afc0" d="M 752.5,152.5 C 754.833,152.833 756.167,154.167 756.5,156.5C 754.833,155.5 753.5,154.167 752.5,152.5 Z"/></g>
<g><path style="opacity:1" fill="#d1dbe3" d="M 130.5,149.5 C 131.167,153.5 131.833,157.5 132.5,161.5C 132.44,162.043 132.107,162.376 131.5,162.5C 130.508,158.217 130.174,153.884 130.5,149.5 Z"/></g>
<g><path style="opacity:1" fill="#ced5dd" d="M 598.5,158.5 C 599.434,159.568 599.768,160.901 599.5,162.5C 590.983,162.826 582.65,162.493 574.5,161.5C 582.5,161.5 590.5,161.5 598.5,161.5C 598.5,160.5 598.5,159.5 598.5,158.5 Z"/></g>
<g><path style="opacity:1" fill="#ced5dd" d="M 757.5,158.5 C 758.434,159.568 758.768,160.901 758.5,162.5C 749.983,162.826 741.65,162.493 733.5,161.5C 741.5,161.5 749.5,161.5 757.5,161.5C 757.5,160.5 757.5,159.5 757.5,158.5 Z"/></g>
<g><path style="opacity:1" fill="#8195ab" d="M 612.5,159.5 C 613.483,163.298 613.817,167.298 613.5,171.5C 600.5,171.5 587.5,171.5 574.5,171.5C 586.989,170.505 599.656,170.171 612.5,170.5C 612.5,166.833 612.5,163.167 612.5,159.5 Z"/></g>
<g><path style="opacity:1" fill="#8195ab" d="M 771.5,159.5 C 772.483,163.298 772.817,167.298 772.5,171.5C 759.5,171.5 746.5,171.5 733.5,171.5C 745.989,170.505 758.656,170.171 771.5,170.5C 771.5,166.833 771.5,163.167 771.5,159.5 Z"/></g>
<g><path style="opacity:1" fill="#cae0f2" d="M 18.5,166.5 C 19.0035,169.453 20.0035,172.286 21.5,175C 25.3197,175.342 26.9864,173.509 26.5,169.5C 28.3541,173.267 27.1874,175.933 23,177.5C 18.8719,175.085 17.3719,171.419 18.5,166.5 Z"/></g>
<g><path style="opacity:1" fill="#b2bdc9" d="M 611.5,177.5 C 606.405,177.221 601.405,177.555 596.5,178.5C 598.743,177.188 601.41,176.522 604.5,176.5C 607.613,176.44 609.946,176.773 611.5,177.5 Z"/></g>
<g><path style="opacity:1" fill="#b2bdc9" d="M 770.5,177.5 C 765.405,177.221 760.405,177.555 755.5,178.5C 757.743,177.188 760.41,176.522 763.5,176.5C 766.613,176.44 768.946,176.773 770.5,177.5 Z"/></g>
<g><path style="opacity:1" fill="#325b82" d="M 157.5,213.5 C 156.07,213.579 154.736,213.246 153.5,212.5C 152.638,213.766 151.971,215.099 151.5,216.5C 139.93,185.699 117.597,171.532 84.5,174C 57.2875,179.713 40.9542,196.213 35.5,223.5C 34.3221,224.662 33.1554,225.662 32,226.5C 30.9563,225.377 30.2896,224.044 30,222.5C 29.3333,223.833 28.6667,225.167 28,226.5C 24.9433,225.549 21.7766,225.216 18.5,225.5C 21.2869,224.523 24.2869,224.19 27.5,224.5C 33.05,192.45 51.7167,172.95 83.5,166C 113.904,163.285 137.07,174.785 153,200.5C 155.207,204.624 156.707,208.957 157.5,213.5 Z"/></g>
<g><path style="opacity:1" fill="#889bb1" d="M 386.5,176.5 C 386.167,178.833 384.833,180.167 382.5,180.5C 383.5,178.833 384.833,177.5 386.5,176.5 Z"/></g>
<g><path style="opacity:1" fill="#a0afbf" d="M 575.5,176.5 C 576.906,176.973 577.573,177.973 577.5,179.5C 576.094,179.027 575.427,178.027 575.5,176.5 Z"/></g>
<g><path style="opacity:1" fill="#a0afbf" d="M 734.5,176.5 C 735.906,176.973 736.573,177.973 736.5,179.5C 735.094,179.027 734.427,178.027 734.5,176.5 Z"/></g>
<g><path style="opacity:1" fill="#d6dce2" d="M 389.5,193.5 C 388.833,191.833 388.167,190.167 387.5,188.5C 387.783,187.711 388.283,187.044 389,186.5C 389.497,188.81 389.663,191.143 389.5,193.5 Z"/></g>
<g><path style="opacity:1" fill="#3c6186" d="M 526.5,203.5 C 535.161,202.329 538.994,205.996 538,214.5C 537.215,216.286 536.049,217.786 534.5,219C 524.836,221.001 520.67,217.167 522,207.5C 523.397,205.93 524.897,204.596 526.5,203.5 Z"/></g>
<g><path style="opacity:1" fill="#ed7823" d="M 838.5,204.5 C 838.5,208.167 838.5,211.833 838.5,215.5C 836.901,215.232 835.568,215.566 834.5,216.5C 832.833,217.5 831.5,218.833 830.5,220.5C 829.539,222.265 829.205,224.265 829.5,226.5C 832.5,226.5 835.5,226.5 838.5,226.5C 838.5,229.833 838.5,233.167 838.5,236.5C 835.5,236.5 832.5,236.5 829.5,236.5C 829.5,250.5 829.5,264.5 829.5,278.5C 825.167,278.5 820.833,278.5 816.5,278.5C 816.5,264.833 816.5,251.167 816.5,237.5C 814.5,237.5 812.5,237.5 810.5,237.5C 810.5,233.5 810.5,229.5 810.5,225.5C 812.5,225.5 814.5,225.5 816.5,225.5C 815.969,210.366 823.302,203.366 838.5,204.5 Z"/></g>
<g><path style="opacity:1" fill="#fae0d3" d="M 838.5,204.5 C 839.483,208.298 839.817,212.298 839.5,216.5C 837.833,216.5 836.167,216.5 834.5,216.5C 835.568,215.566 836.901,215.232 838.5,215.5C 838.5,211.833 838.5,208.167 838.5,204.5 Z"/></g>
<g><path style="opacity:1" fill="#f1843a" d="M 899.5,205.5 C 899.427,207.027 900.094,208.027 901.5,208.5C 902.911,217.575 898.911,221.075 889.5,219C 884.619,214.625 884.285,209.958 888.5,205C 892.394,202.875 896.061,203.042 899.5,205.5 Z"/></g>
<g><path style="opacity:1" fill="#f9bd9d" d="M 899.5,205.5 C 900.906,205.973 901.573,206.973 901.5,208.5C 900.094,208.027 899.427,207.027 899.5,205.5 Z"/></g>
<g><path style="opacity:1" fill="#aebac7" d="M 409.5,208.5 C 405.167,208.5 400.833,208.5 396.5,208.5C 396.5,231.833 396.5,255.167 396.5,278.5C 395.502,255.006 395.169,231.339 395.5,207.5C 400.363,207.181 405.03,207.514 409.5,208.5 Z"/></g>
<g><path style="opacity:1" fill="#1b4f78" d="M 409.5,208.5 C 409.5,231.833 409.5,255.167 409.5,278.5C 405.167,278.5 400.833,278.5 396.5,278.5C 396.5,255.167 396.5,231.833 396.5,208.5C 400.833,208.5 405.167,208.5 409.5,208.5 Z"/></g>
<g><path style="opacity:1" fill="#315a80" d="M 323.5,228.5 C 318.6,229.8 313.6,229.8 308.5,228.5C 305.671,223.425 301.338,221.592 295.5,223C 288.454,228.575 289.12,233.242 297.5,237C 302.5,238.667 307.5,240.333 312.5,242C 315.621,243.306 318.287,245.14 320.5,247.5C 320.427,249.027 321.094,250.027 322.5,250.5C 326.36,259.684 324.693,267.85 317.5,275C 307.019,280.6 296.352,280.934 285.5,276C 279.744,272.416 276.744,267.249 276.5,260.5C 280.97,259.514 285.637,259.181 290.5,259.5C 290.263,260.791 290.596,261.791 291.5,262.5C 294.944,267.191 299.61,268.691 305.5,267C 311.703,263.171 312.036,258.838 306.5,254C 298.687,251.395 291.02,248.395 283.5,245C 275.952,237.726 274.452,229.226 279,219.5C 286.313,212.163 295.146,209.33 305.5,211C 316.035,212.37 322.035,218.203 323.5,228.5 Z"/></g>
<g><path style="opacity:1" fill="#ef7e2f" d="M 788.5,267.5 C 784.386,266.174 779.886,265.507 775,265.5C 770.32,265.501 765.82,265.834 761.5,266.5C 760.568,270.296 759.234,273.963 757.5,277.5C 752.533,278.662 747.533,278.829 742.5,278C 750.525,256.259 758.359,234.426 766,212.5C 771.416,211.361 776.916,211.194 782.5,212C 790.79,233.702 798.79,255.535 806.5,277.5C 801.5,278.833 796.5,278.833 791.5,277.5C 790.091,274.273 789.091,270.94 788.5,267.5 Z M 773.5,230.5 C 774.167,230.5 774.833,230.5 775.5,230.5C 777.796,238.391 780.463,246.058 783.5,253.5C 777.69,254.49 771.69,254.823 765.5,254.5C 768.73,246.703 771.397,238.703 773.5,230.5 Z"/></g>
<g><path style="opacity:1" fill="#25547c" d="M 488.5,212.5 C 492.833,212.5 497.167,212.5 501.5,212.5C 501.5,216.833 501.5,221.167 501.5,225.5C 505.5,225.5 509.5,225.5 513.5,225.5C 513.5,229.5 513.5,233.5 513.5,237.5C 509.5,237.5 505.5,237.5 501.5,237.5C 501.083,246.915 501.583,256.248 503,265.5C 506.394,266.456 509.894,266.789 513.5,266.5C 513.5,270.5 513.5,274.5 513.5,278.5C 508.156,278.666 502.823,278.499 497.5,278C 492.011,276.021 489.011,272.188 488.5,266.5C 488.5,256.5 488.5,246.5 488.5,236.5C 486.5,236.5 484.5,236.5 482.5,236.5C 482.5,233.167 482.5,229.833 482.5,226.5C 484.5,226.5 486.5,226.5 488.5,226.5C 488.5,221.833 488.5,217.167 488.5,212.5 Z"/></g>
<g><path style="opacity:1" fill="#99abbf" d="M 152.5,223.5 C 153.043,223.56 153.376,223.893 153.5,224.5C 152.311,225.429 150.978,225.762 149.5,225.5C 150.5,224.833 151.5,224.167 152.5,223.5 Z"/></g>
<g><path style="opacity:1" fill="#325b81" d="M 352.5,224.5 C 379.973,224.473 390.473,237.806 384,264.5C 375.475,278.355 363.309,282.855 347.5,278C 334.317,271.167 329.15,260.334 332,245.5C 335.007,234.66 341.841,227.66 352.5,224.5 Z M 365.5,238.5 C 365.973,239.906 366.973,240.573 368.5,240.5C 372.829,248.568 372.496,256.402 367.5,264C 357.37,270.068 350.203,267.568 346,256.5C 343.836,245.476 348.169,238.81 359,236.5C 361.154,237.274 363.321,237.941 365.5,238.5 Z"/></g>
<g><path style="opacity:1" fill="#325b81" d="M 566.5,224.5 C 593.973,224.473 604.473,237.806 598,264.5C 589.475,278.355 577.309,282.855 561.5,278C 548.317,271.167 543.15,260.334 546,245.5C 549.007,234.66 555.841,227.66 566.5,224.5 Z M 579.5,238.5 C 579.973,239.906 580.973,240.573 582.5,240.5C 586.829,248.568 586.496,256.402 581.5,264C 571.37,270.068 564.203,267.568 560,256.5C 557.836,245.476 562.169,238.81 573,236.5C 575.154,237.274 577.321,237.941 579.5,238.5 Z"/></g>
<g><path style="opacity:1" fill="#2a567d" d="M 610.5,278.5 C 610.5,261.167 610.5,243.833 610.5,226.5C 614.833,226.5 619.167,226.5 623.5,226.5C 623.5,227.833 623.5,229.167 623.5,230.5C 623.369,231.239 623.536,231.906 624,232.5C 625.376,231.295 626.542,229.962 627.5,228.5C 636.116,223.117 644.782,223.284 653.5,229C 656.944,232.111 659.111,235.944 660,240.5C 660.5,253.162 660.667,265.829 660.5,278.5C 655.833,278.5 651.167,278.5 646.5,278.5C 646.667,267.162 646.5,255.828 646,244.5C 642.489,237.438 636.989,235.272 629.5,238C 626.533,240.1 624.7,242.934 624,246.5C 623.5,257.161 623.333,267.828 623.5,278.5C 619.167,278.5 614.833,278.5 610.5,278.5 Z"/></g>
<g><path style="opacity:1" fill="#335c82" d="M 709.5,231.5 C 709.427,233.027 710.094,234.027 711.5,234.5C 713.04,236.838 713.706,239.505 713.5,242.5C 709.116,242.826 704.783,242.492 700.5,241.5C 697.159,236.109 692.492,234.609 686.5,237C 683.747,240.854 684.747,243.521 689.5,245C 695.608,246.693 701.608,248.693 707.5,251C 717.031,260.072 716.698,268.738 706.5,277C 694.739,281.463 683.906,279.963 674,272.5C 671.713,269.928 670.547,266.928 670.5,263.5C 675.066,262.203 679.733,262.203 684.5,263.5C 688.966,269.257 694.133,269.923 700,265.5C 700.667,264.167 700.667,262.833 700,261.5C 693.513,258.225 686.679,255.725 679.5,254C 671.024,248.284 669.191,240.784 674,231.5C 682.431,224.554 691.931,222.72 702.5,226C 705.595,226.935 707.929,228.769 709.5,231.5 Z"/></g>
<g><path style="opacity:1" fill="#f3a67d" d="M 830.5,220.5 C 830.5,222.167 830.5,223.833 830.5,225.5C 833.5,225.5 836.5,225.5 839.5,225.5C 839.5,229.167 839.5,232.833 839.5,236.5C 839.167,236.5 838.833,236.5 838.5,236.5C 838.5,233.167 838.5,229.833 838.5,226.5C 835.5,226.5 832.5,226.5 829.5,226.5C 829.205,224.265 829.539,222.265 830.5,220.5 Z"/></g>
<g><path style="opacity:1" fill="#ee7924" d="M 848.5,278.5 C 848.5,261.167 848.5,243.833 848.5,226.5C 852.833,226.5 857.167,226.5 861.5,226.5C 861.205,228.735 861.539,230.735 862.5,232.5C 864.167,231.5 865.5,230.167 866.5,228.5C 869.547,225.81 873.213,224.476 877.5,224.5C 877.5,229.5 877.5,234.5 877.5,239.5C 871.199,238.314 866.366,240.314 863,245.5C 861.594,256.436 861.094,267.436 861.5,278.5C 857.167,278.5 852.833,278.5 848.5,278.5 Z"/></g>
<g><path style="opacity:1" fill="#ef7f32" d="M 954.5,231.5 C 954.427,233.027 955.094,234.027 956.5,234.5C 958.974,236.898 960.308,239.898 960.5,243.5C 955.489,243.666 950.489,243.499 945.5,243C 940.298,235.495 934.132,234.662 927,240.5C 922.761,247.655 922.427,254.989 926,262.5C 930.24,267.276 935.407,268.609 941.5,266.5C 943.833,266.167 945.167,264.833 945.5,262.5C 950.07,261.559 954.737,261.226 959.5,261.5C 959.5,262.5 959.5,263.5 959.5,264.5C 956.909,272.254 951.575,277.087 943.5,279C 918.518,281.017 907.351,269.517 910,244.5C 910.805,240.224 912.638,236.557 915.5,233.5C 917.749,232.92 919.415,231.587 920.5,229.5C 924.788,226.07 929.788,224.404 935.5,224.5C 942.906,224.298 949.239,226.631 954.5,231.5 Z"/></g>
<g><path style="opacity:1" fill="#ef7c2c" d="M 1007.5,231.5 C 1007.78,232.289 1008.28,232.956 1009,233.5C 1009.5,231.19 1009.66,228.857 1009.5,226.5C 1013.83,226.5 1018.17,226.5 1022.5,226.5C 1022.5,243.833 1022.5,261.167 1022.5,278.5C 1018.17,278.5 1013.83,278.5 1009.5,278.5C 1009.66,276.143 1009.5,273.81 1009,271.5C 1008.28,272.044 1007.78,272.711 1007.5,273.5C 1000.15,279.63 991.82,281.13 982.5,278C 979.894,277.208 977.894,275.708 976.5,273.5C 976.167,272.5 975.5,271.833 974.5,271.5C 971.058,268.288 968.891,264.288 968,259.5C 967.333,254.5 967.333,249.5 968,244.5C 968.387,241.401 969.554,238.734 971.5,236.5C 972.906,236.027 973.573,235.027 973.5,233.5C 974.5,231.833 975.833,230.5 977.5,229.5C 979.027,229.573 980.027,228.906 980.5,227.5C 988.461,223.382 996.461,223.549 1004.5,228C 1005.71,229.039 1006.71,230.206 1007.5,231.5 Z M 1006.5,261.5 C 1004.83,262.5 1003.5,263.833 1002.5,265.5C 990.429,269.122 983.429,264.622 981.5,252C 983.484,239.186 990.484,234.852 1002.5,239C 1008.87,245.529 1010.2,253.029 1006.5,261.5 Z"/></g>
<g><path style="opacity:1" fill="#2b577e" d="M 422.5,226.5 C 426.833,226.5 431.167,226.5 435.5,226.5C 435.172,237.679 435.505,248.679 436.5,259.5C 439.984,266.671 445.65,269.004 453.5,266.5C 455.833,266.167 457.167,264.833 457.5,262.5C 459.368,250.281 460.035,237.948 459.5,225.5C 464.167,225.5 468.833,225.5 473.5,225.5C 473.5,243.167 473.5,260.833 473.5,278.5C 468.833,278.5 464.167,278.5 459.5,278.5C 459.66,276.801 459.494,275.134 459,273.5C 451.768,279.589 443.602,281.089 434.5,278C 428.508,275.341 424.675,270.841 423,264.5C 422.5,251.838 422.333,239.171 422.5,226.5 Z"/></g>
<g><path style="opacity:1" fill="#9eadbd" d="M 422.5,226.5 C 426.97,225.514 431.637,225.181 436.5,225.5C 436.5,236.833 436.5,248.167 436.5,259.5C 435.505,248.679 435.172,237.679 435.5,226.5C 431.167,226.5 426.833,226.5 422.5,226.5 Z"/></g>
<g><path style="opacity:1" fill="#a4b2c1" d="M 536.5,226.5 C 532.167,226.5 527.833,226.5 523.5,226.5C 523.5,243.833 523.5,261.167 523.5,278.5C 522.503,261.008 522.17,243.341 522.5,225.5C 527.363,225.181 532.03,225.514 536.5,226.5 Z"/></g>
<g><path style="opacity:1" fill="#1b4f78" d="M 536.5,226.5 C 536.5,243.833 536.5,261.167 536.5,278.5C 532.167,278.5 527.833,278.5 523.5,278.5C 523.5,261.167 523.5,243.833 523.5,226.5C 527.833,226.5 532.167,226.5 536.5,226.5 Z"/></g>
<g><path style="opacity:1" fill="#a4b2c1" d="M 623.5,226.5 C 619.167,226.5 614.833,226.5 610.5,226.5C 610.5,243.833 610.5,261.167 610.5,278.5C 609.503,261.008 609.17,243.341 609.5,225.5C 614.363,225.181 619.03,225.514 623.5,226.5 Z"/></g>
<g><path style="opacity:1" fill="#f6c0a5" d="M 861.5,226.5 C 857.167,226.5 852.833,226.5 848.5,226.5C 848.5,243.833 848.5,261.167 848.5,278.5C 847.503,261.008 847.17,243.341 847.5,225.5C 852.363,225.181 857.03,225.514 861.5,226.5 Z"/></g>
<g><path style="opacity:1" fill="#f6c0a5" d="M 900.5,226.5 C 896.167,226.5 891.833,226.5 887.5,226.5C 887.5,243.833 887.5,261.167 887.5,278.5C 886.503,261.008 886.17,243.341 886.5,225.5C 891.363,225.181 896.03,225.514 900.5,226.5 Z"/></g>
<g><path style="opacity:1" fill="#ec761d" d="M 900.5,226.5 C 900.5,243.833 900.5,261.167 900.5,278.5C 896.167,278.5 891.833,278.5 887.5,278.5C 887.5,261.167 887.5,243.833 887.5,226.5C 891.833,226.5 896.167,226.5 900.5,226.5 Z"/></g>
<g><path style="opacity:1" fill="#f8c2a7" d="M 1022.5,226.5 C 1018.17,226.5 1013.83,226.5 1009.5,226.5C 1009.66,228.857 1009.5,231.19 1009,233.5C 1008.28,232.956 1007.78,232.289 1007.5,231.5C 1008.46,229.735 1008.79,227.735 1008.5,225.5C 1013.36,225.181 1018.03,225.514 1022.5,226.5 Z"/></g>
<g><path style="opacity:1" fill="#f8b590" d="M 980.5,227.5 C 980.027,228.906 979.027,229.573 977.5,229.5C 977.973,228.094 978.973,227.427 980.5,227.5 Z"/></g>
<g><path style="opacity:1" fill="#b5c0cc" d="M 308.5,228.5 C 313.6,229.8 318.6,229.8 323.5,228.5C 324.043,228.56 324.376,228.893 324.5,229.5C 321.833,229.833 319.167,230.167 316.5,230.5C 313.41,230.478 310.743,229.812 308.5,228.5 Z"/></g>
<g><path style="opacity:1" fill="#93a5b8" d="M 627.5,228.5 C 626.542,229.962 625.376,231.295 624,232.5C 623.536,231.906 623.369,231.239 623.5,230.5C 624.605,229.4 625.938,228.733 627.5,228.5 Z"/></g>
<g><path style="opacity:1" fill="#fbdfd2" d="M 775.5,230.5 C 774.833,230.5 774.167,230.5 773.5,230.5C 774.596,226.711 775.263,226.711 775.5,230.5 Z"/></g>
<g><path style="opacity:1" fill="#f8b693" d="M 866.5,228.5 C 865.5,230.167 864.167,231.5 862.5,232.5C 862.833,230.167 864.167,228.833 866.5,228.5 Z"/></g>
<g><path style="opacity:1" fill="#f8a574" d="M 920.5,229.5 C 919.415,231.587 917.749,232.92 915.5,233.5C 916.585,231.413 918.251,230.08 920.5,229.5 Z"/></g>
<g><path style="opacity:1" fill="#a7b5c4" d="M 709.5,231.5 C 710.906,231.973 711.573,232.973 711.5,234.5C 710.094,234.027 709.427,233.027 709.5,231.5 Z"/></g>
<g><path style="opacity:1" fill="#f9c4a8" d="M 954.5,231.5 C 955.906,231.973 956.573,232.973 956.5,234.5C 955.094,234.027 954.427,233.027 954.5,231.5 Z"/></g>
<g><path style="opacity:1" fill="#f8b691" d="M 973.5,233.5 C 973.573,235.027 972.906,236.027 971.5,236.5C 971.427,234.973 972.094,233.973 973.5,233.5 Z"/></g>
<g><path style="opacity:1" fill="#b5c7d4" d="M 308.5,236.5 C 310.225,236.843 310.725,237.843 310,239.5C 308.961,238.756 308.461,237.756 308.5,236.5 Z"/></g>
<g><path style="opacity:1" fill="#c7cfd8" d="M 488.5,212.5 C 488.5,217.167 488.5,221.833 488.5,226.5C 486.5,226.5 484.5,226.5 482.5,226.5C 482.5,229.833 482.5,233.167 482.5,236.5C 484.5,236.5 486.5,236.5 488.5,236.5C 488.5,246.5 488.5,256.5 488.5,266.5C 487.506,257.014 487.173,247.348 487.5,237.5C 485.5,237.5 483.5,237.5 481.5,237.5C 481.5,233.5 481.5,229.5 481.5,225.5C 483.5,225.5 485.5,225.5 487.5,225.5C 487.182,220.968 487.515,216.634 488.5,212.5 Z"/></g>
<g><path style="opacity:1" fill="#f7cab3" d="M 838.5,236.5 C 838.833,236.5 839.167,236.5 839.5,236.5C 836.713,237.477 833.713,237.81 830.5,237.5C 830.829,251.344 830.496,265.01 829.5,278.5C 829.5,264.5 829.5,250.5 829.5,236.5C 832.5,236.5 835.5,236.5 838.5,236.5 Z"/></g>
<g><path style="opacity:1" fill="#a6b4c3" d="M 365.5,238.5 C 367.027,238.427 368.027,239.094 368.5,240.5C 366.973,240.573 365.973,239.906 365.5,238.5 Z"/></g>
<g><path style="opacity:1" fill="#a6b4c3" d="M 579.5,238.5 C 581.027,238.427 582.027,239.094 582.5,240.5C 580.973,240.573 579.973,239.906 579.5,238.5 Z"/></g>
<g><path style="opacity:1" fill="#aebac8" d="M 320.5,247.5 C 321.906,247.973 322.573,248.973 322.5,250.5C 321.094,250.027 320.427,249.027 320.5,247.5 Z"/></g>
<g><path style="opacity:1" fill="#f9daca" d="M 783.5,253.5 C 784.043,253.56 784.376,253.893 784.5,254.5C 781.167,254.833 777.833,255.167 774.5,255.5C 770.735,255.545 767.735,255.211 765.5,254.5C 771.69,254.823 777.69,254.49 783.5,253.5 Z"/></g>
<g><path style="opacity:1" fill="#2e5880" d="M 157.5,213.5 C 159.082,216.876 159.749,220.542 159.5,224.5C 165.489,224.198 171.155,225.364 176.5,228C 178.617,229.731 180.117,231.898 181,234.5C 181.667,249.167 181.667,263.833 181,278.5C 179.192,282.974 176.026,286.141 171.5,288C 163.833,288.667 156.167,288.667 148.5,288C 144.157,286.99 140.99,284.49 139,280.5C 137.384,265.902 137.051,251.235 138,236.5C 139.104,229.894 142.938,226.228 149.5,225.5C 150.978,225.762 152.311,225.429 153.5,224.5C 153.376,223.893 153.043,223.56 152.5,223.5C 151.781,221.236 151.448,218.903 151.5,216.5C 151.971,215.099 152.638,213.766 153.5,212.5C 154.736,213.246 156.07,213.579 157.5,213.5 Z M 173.5,235.5 C 174.463,248.451 174.796,261.451 174.5,274.5C 174.211,277.567 172.544,279.567 169.5,280.5C 166.5,280.5 163.5,280.5 160.5,280.5C 160.5,264.5 160.5,248.5 160.5,232.5C 165.393,231.738 169.726,232.738 173.5,235.5 Z M 150.5,232.5 C 152.485,248.132 153.151,264.132 152.5,280.5C 151.5,280.5 150.5,280.5 149.5,280.5C 148.206,279.71 147.039,278.71 146,277.5C 145.333,263.5 145.333,249.5 146,235.5C 147.129,233.859 148.629,232.859 150.5,232.5 Z"/></g>
<g><path style="opacity:1" fill="#5a7ea0" d="M 173.5,235.5 C 174.117,235.611 174.617,235.944 175,236.5C 175.827,249.34 175.66,262.007 174.5,274.5C 174.796,261.451 174.463,248.451 173.5,235.5 Z"/></g>
<g><path style="opacity:1" fill="#b7c5d3" d="M 173.5,235.5 C 169.726,232.738 165.393,231.738 160.5,232.5C 160.5,248.5 160.5,264.5 160.5,280.5C 163.5,280.5 166.5,280.5 169.5,280.5C 166.375,281.479 163.042,281.813 159.5,281.5C 159.5,264.833 159.5,248.167 159.5,231.5C 163.514,231.334 167.514,231.501 171.5,232C 172.823,232.816 173.489,233.983 173.5,235.5 Z"/></g>
<g><path style="opacity:1" fill="#d2dae2" d="M 150.5,232.5 C 151.209,231.596 152.209,231.263 153.5,231.5C 153.5,248.167 153.5,264.833 153.5,281.5C 151.901,281.768 150.568,281.434 149.5,280.5C 150.5,280.5 151.5,280.5 152.5,280.5C 153.151,264.132 152.485,248.132 150.5,232.5 Z"/></g>
<g><path style="opacity:1" fill="#d2d8df" d="M 291.5,262.5 C 290.596,261.791 290.263,260.791 290.5,259.5C 285.637,259.181 280.97,259.514 276.5,260.5C 275.957,260.44 275.624,260.107 275.5,259.5C 280.792,258.505 286.125,258.172 291.5,258.5C 291.5,259.833 291.5,261.167 291.5,262.5 Z"/></g>
<g><path style="opacity:1" fill="#f4aa83" d="M 959.5,264.5 C 959.5,263.5 959.5,262.5 959.5,261.5C 954.737,261.226 950.07,261.559 945.5,262.5C 950.056,260.558 955.056,259.892 960.5,260.5C 960.768,262.099 960.434,263.432 959.5,264.5 Z"/></g>
<g><path style="opacity:1" fill="#345d84" d="M 35.5,223.5 C 41.4508,224.739 45.9508,228.073 49,233.5C 50.7948,247.796 50.9615,262.13 49.5,276.5C 48.7321,275.737 48.2321,274.737 48,273.5C 47.6543,276.576 46.9876,279.576 46,282.5C 45.3659,279.444 44.1992,277.444 42.5,276.5C 42.6666,263.163 42.4999,249.829 42,236.5C 41.4867,235.473 40.9867,234.473 40.5,233.5C 39.8658,232.053 38.6991,231.387 37,231.5C 35.9302,231.528 35.0968,231.861 34.5,232.5C 34.3334,248.503 34.5001,264.503 35,280.5C 35.3826,281.056 35.8826,281.389 36.5,281.5C 37.2389,281.369 37.9056,281.536 38.5,282C 36.8659,282.494 35.1992,282.66 33.5,282.5C 33.3433,283.873 33.51,285.207 34,286.5C 34.3333,286.167 34.6667,285.833 35,285.5C 36.3988,286.227 37.8988,286.727 39.5,287C 37.5,287.333 35.5,287.667 33.5,288C 34.1094,289.948 34.776,291.782 35.5,293.5C 36.2653,296.096 36.5987,298.763 36.5,301.5C 36.631,302.239 36.4643,302.906 36,303.5C 35,302.5 34,301.5 33,300.5C 32.7996,302.32 31.9663,303.653 30.5,304.5C 28.4407,299.494 27.4407,294.16 27.5,288.5C 17.836,290.575 11.0027,287.242 7,278.5C 6.33333,264.167 6.33333,249.833 7,235.5C 8.55124,229.444 12.3846,226.11 18.5,225.5C 21.7766,225.216 24.9433,225.549 28,226.5C 28.6667,225.167 29.3333,223.833 30,222.5C 30.2896,224.044 30.9563,225.377 32,226.5C 33.1554,225.662 34.3221,224.662 35.5,223.5 Z M 34.5,232.5 C 36.5648,232.517 38.5648,232.85 40.5,233.5C 40.9867,234.473 41.4867,235.473 42,236.5C 42.4999,249.829 42.6666,263.163 42.5,276.5C 41.0857,278.918 39.0857,280.585 36.5,281.5C 35.8826,281.389 35.3826,281.056 35,280.5C 34.5001,264.503 34.3334,248.503 34.5,232.5 Z M 18.5,232.5 C 21.5,232.5 24.5,232.5 27.5,232.5C 27.8178,248.911 27.4845,265.244 26.5,281.5C 23.4781,281.196 20.4781,280.696 17.5,280C 16.3333,279.5 15.5,278.667 15,277.5C 14.3333,263.5 14.3333,249.5 15,235.5C 16.0391,234.29 17.2058,233.29 18.5,232.5 Z"/></g>
<g><path style="opacity:1" fill="#849fb5" d="M 34.5,232.5 C 35.0968,231.861 35.9302,231.528 37,231.5C 38.6991,231.387 39.8658,232.053 40.5,233.5C 38.5648,232.85 36.5648,232.517 34.5,232.5 Z"/></g>
<g><path style="opacity:1" fill="#879aaf" d="M 684.5,263.5 C 679.733,262.203 675.066,262.203 670.5,263.5C 669.957,263.44 669.624,263.107 669.5,262.5C 672,262.167 674.5,261.833 677,261.5C 679.929,261.525 682.429,262.191 684.5,263.5 Z"/></g>
<g><path style="opacity:1" fill="#f9b188" d="M 1006.5,261.5 C 1006.17,263.833 1004.83,265.167 1002.5,265.5C 1003.5,263.833 1004.83,262.5 1006.5,261.5 Z"/></g>
<g><path style="opacity:1" fill="#60829f" d="M 18.5,232.5 C 21.6248,231.521 24.9581,231.187 28.5,231.5C 28.6666,248.17 28.4999,264.837 28,281.5C 27.31,282.738 26.81,282.738 26.5,281.5C 27.4845,265.244 27.8178,248.911 27.5,232.5C 24.5,232.5 21.5,232.5 18.5,232.5 Z"/></g>
<g><path style="opacity:1" fill="#abb8c6" d="M 457.5,262.5 C 457.167,264.833 455.833,266.167 453.5,266.5C 454.5,264.833 455.833,263.5 457.5,262.5 Z"/></g>
<g><path style="opacity:1" fill="#f9b58f" d="M 945.5,262.5 C 945.167,264.833 943.833,266.167 941.5,266.5C 942.5,264.833 943.833,263.5 945.5,262.5 Z"/></g>
<g><path style="opacity:1" fill="#f9ded0" d="M 761.5,266.5 C 765.82,265.834 770.32,265.501 775,265.5C 779.886,265.507 784.386,266.174 788.5,267.5C 779.584,266.529 770.584,266.196 761.5,266.5 Z"/></g>
<g><path style="opacity:1" fill="#fae2d6" d="M 1009.5,278.5 C 1008.83,276.833 1008.17,275.167 1007.5,273.5C 1007.78,272.711 1008.28,272.044 1009,271.5C 1009.5,273.81 1009.66,276.143 1009.5,278.5 Z"/></g>
<g><path style="opacity:1" fill="#fbd3bf" d="M 974.5,271.5 C 975.5,271.833 976.167,272.5 976.5,273.5C 975.167,273.5 974.5,272.833 974.5,271.5 Z"/></g>
<g><path style="opacity:1" fill="#385e83" d="M 49.5,276.5 C 48.0643,284.224 43.3976,288.224 35.5,288.5C 35.5,290.167 35.5,291.833 35.5,293.5C 34.776,291.782 34.1094,289.948 33.5,288C 35.5,287.667 37.5,287.333 39.5,287C 37.8988,286.727 36.3988,286.227 35,285.5C 34.6667,285.833 34.3333,286.167 34,286.5C 33.51,285.207 33.3433,283.873 33.5,282.5C 35.1992,282.66 36.8659,282.494 38.5,282C 37.9056,281.536 37.2389,281.369 36.5,281.5C 39.0857,280.585 41.0857,278.918 42.5,276.5C 44.1992,277.444 45.3659,279.444 46,282.5C 46.9876,279.576 47.6543,276.576 48,273.5C 48.2321,274.737 48.7321,275.737 49.5,276.5 Z"/></g>
<g><path style="opacity:1" fill="#acaeb6" d="M 194.5,294.5 C 195.307,300.464 195.64,306.464 195.5,312.5C 192.759,320.661 189.425,328.661 185.5,336.5C 181.84,339.119 180.507,342.453 181.5,346.5C 183.25,347.659 184.25,349.326 184.5,351.5C 184.174,354.001 182.841,355.168 180.5,355C 176.058,351.308 174.058,346.808 174.5,341.5C 178.264,333.637 182.264,325.97 186.5,318.5C 187.927,316.852 188.76,314.852 189,312.5C 189.814,307.98 189.647,303.646 188.5,299.5C 187.596,298.791 187.263,297.791 187.5,296.5C 185.854,291.865 184.187,287.198 182.5,282.5C 183.212,280.954 184.378,279.954 186,279.5C 189.369,284.242 192.202,289.242 194.5,294.5 Z"/></g>
<g><path style="opacity:1" fill="#f3f3f5" d="M 194.5,294.5 C 192.202,289.242 189.369,284.242 186,279.5C 184.378,279.954 183.212,280.954 182.5,282.5C 184.187,287.198 185.854,291.865 187.5,296.5C 184.55,292.34 182.55,287.673 181.5,282.5C 182.558,278.681 184.891,277.681 188.5,279.5C 191.35,284.194 193.35,289.194 194.5,294.5 Z"/></g>
<g><path style="opacity:1" fill="#e1e8ee" d="M 245.5,287.5 C 247.983,287.73 248.483,288.397 247,289.5C 245.97,289.164 245.47,288.497 245.5,287.5 Z"/></g>
<g><path style="opacity:1" fill="#f4f4f5" d="M 188.5,299.5 C 189.647,303.646 189.814,307.98 189,312.5C 188.76,314.852 187.927,316.852 186.5,318.5C 188.102,312.283 188.768,305.949 188.5,299.5 Z"/></g>
<g><path style="opacity:1" fill="#f1f1f2" d="M 194.5,294.5 C 196.03,297.695 196.696,301.195 196.5,305C 196.497,307.69 196.164,310.19 195.5,312.5C 195.64,306.464 195.307,300.464 194.5,294.5 Z"/></g>
<g><path style="opacity:1" fill="#2e5981" d="M 36.5,301.5 C 38.3001,306.639 41.3001,310.972 45.5,314.5C 45.8417,315.338 46.5084,315.672 47.5,315.5C 47.6621,317.527 47.4955,319.527 47,321.5C 46.6174,322.056 46.1174,322.389 45.5,322.5C 37.6087,318.939 32.6087,312.939 30.5,304.5C 31.9663,303.653 32.7996,302.32 33,300.5C 34,301.5 35,302.5 36,303.5C 36.4643,302.906 36.631,302.239 36.5,301.5 Z"/></g>
<g><path style="opacity:1" fill="#fadecf" d="M 274.5,301.5 C 277.518,301.335 280.518,301.502 283.5,302C 280.298,303.483 276.964,303.817 273.5,303C 274.056,302.617 274.389,302.117 274.5,301.5 Z"/></g>
<g><path style="opacity:1" fill="#7aa568" d="M 49.5,311.5 C 49.5,312.5 49.5,313.5 49.5,314.5C 50.791,314.263 51.791,314.596 52.5,315.5C 52.5,319.833 52.5,324.167 52.5,328.5C 51.5151,324.366 51.1818,320.032 51.5,315.5C 50.1667,315.5 48.8333,315.5 47.5,315.5C 46.5084,315.672 45.8417,315.338 45.5,314.5C 47.0301,313.789 48.3634,312.789 49.5,311.5 Z"/></g>
<g><path style="opacity:1" fill="#5a9244" d="M 45.5,322.5 C 46.1174,322.389 46.6174,322.056 47,321.5C 47.4955,319.527 47.6621,317.527 47.5,315.5C 48.8333,315.5 50.1667,315.5 51.5,315.5C 51.1818,320.032 51.5151,324.366 52.5,328.5C 53.2891,328.783 53.9558,329.283 54.5,330C 62.1667,330.667 69.8333,330.667 77.5,330C 83.069,324.4 82.7356,319.233 76.5,314.5C 72.8485,313.835 69.0152,313.501 65,313.5C 60.771,313.51 56.9377,314.177 53.5,315.5C 53.1667,315.5 52.8333,315.5 52.5,315.5C 51.791,314.596 50.791,314.263 49.5,314.5C 49.5,313.5 49.5,312.5 49.5,311.5C 50.7489,309.864 52.4156,308.697 54.5,308C 62.5,307.333 70.5,307.333 78.5,308C 87.8472,312.535 90.6806,319.702 87,329.5C 85.0096,333.49 81.8429,335.99 77.5,337C 70.1667,337.667 62.8333,337.667 55.5,337C 48.8431,334.536 45.5097,329.702 45.5,322.5 Z M 76.5,314.5 C 82.7356,319.233 83.069,324.4 77.5,330C 69.8333,330.667 62.1667,330.667 54.5,330C 53.9558,329.283 53.2891,328.783 52.5,328.5C 52.5,324.167 52.5,319.833 52.5,315.5C 52.8333,315.5 53.1667,315.5 53.5,315.5C 61.0804,314.534 68.747,314.201 76.5,314.5 Z"/></g>
<g><path style="opacity:1" fill="#c1d5ba" d="M 76.5,314.5 C 68.747,314.201 61.0804,314.534 53.5,315.5C 56.9377,314.177 60.771,313.51 65,313.5C 69.0152,313.501 72.8485,313.835 76.5,314.5 Z"/></g>
<g><path style="opacity:1" fill="#fdf6f3" d="M 380.5,329.5 C 380.897,328.475 381.563,328.308 382.5,329C 381.906,329.464 381.239,329.631 380.5,329.5 Z"/></g>
<g><path style="opacity:1" fill="#fdf5f1" d="M 344.5,330.5 C 346.288,329.378 348.288,329.211 350.5,330C 348.527,330.495 346.527,330.662 344.5,330.5 Z"/></g>
<g><path style="opacity:1" fill="#f4f4f6" d="M 195.5,312.5 C 194.293,321.474 190.959,329.474 185.5,336.5C 189.425,328.661 192.759,320.661 195.5,312.5 Z"/></g>
<g><path style="opacity:1" fill="#f5f5f6" d="M 347.5,334.5 C 346.883,334.389 346.383,334.056 346,333.5C 342.215,337.131 338.049,340.131 333.5,342.5C 337.201,338.637 341.368,335.304 346,332.5C 347.03,332.836 347.53,333.503 347.5,334.5 Z"/></g>
<g><path style="opacity:1" fill="#6eb38e" d="M 390.5,334.5 C 391.833,336.167 391.833,337.833 390.5,339.5C 389.448,339.351 388.448,339.517 387.5,340C 378.996,345.366 370.996,351.2 363.5,357.5C 362.344,365.42 360.844,373.42 359,381.5C 357.962,385.468 356.462,389.135 354.5,392.5C 354.163,388.301 353.163,384.634 351.5,381.5C 352.309,379.929 352.643,378.262 352.5,376.5C 354.011,373.456 354.678,370.122 354.5,366.5C 354.19,363.287 354.523,360.287 355.5,357.5C 356.163,355.958 356.83,354.291 357.5,352.5C 362.487,349.498 367.153,346.164 371.5,342.5C 377.064,339.616 382.398,336.282 387.5,332.5C 388.518,333.193 389.518,333.859 390.5,334.5 Z"/></g>
<g><path style="opacity:1" fill="#beddcc" d="M 390.5,334.5 C 389.518,333.859 388.518,333.193 387.5,332.5C 382.398,336.282 377.064,339.616 371.5,342.5C 375.92,338.777 380.586,335.277 385.5,332C 388.262,330.923 389.928,331.756 390.5,334.5 Z"/></g>
<g><path style="opacity:1" fill="#f3f3f5" d="M 185.5,336.5 C 183.707,339.634 182.374,342.967 181.5,346.5C 180.507,342.453 181.84,339.119 185.5,336.5 Z"/></g>
<g><path style="opacity:1" fill="#f3f3f4" d="M 347.5,334.5 C 349.099,335.799 349.599,337.465 349,339.5C 346.894,342.118 344.394,344.118 341.5,345.5C 343.628,342.87 345.961,340.37 348.5,338C 347.663,336.989 347.33,335.822 347.5,334.5 Z"/></g>
<g><path style="opacity:1" fill="#f3f3f5" d="M 330.5,344.5 C 327.399,347.933 323.732,350.6 319.5,352.5C 322.601,349.067 326.268,346.4 330.5,344.5 Z"/></g>
<g><path style="opacity:1" fill="#f3f4f5" d="M 174.5,341.5 C 174.058,346.808 176.058,351.308 180.5,355C 182.841,355.168 184.174,354.001 184.5,351.5C 185.486,355.342 183.819,356.842 179.5,356C 176.943,353.108 174.776,349.941 173,346.5C 172.401,344.465 172.901,342.799 174.5,341.5 Z"/></g>
<g><path style="opacity:1" fill="#c3dfcf" d="M 390.5,339.5 C 381.709,345.735 372.709,351.735 363.5,357.5C 370.996,351.2 378.996,345.366 387.5,340C 388.448,339.517 389.448,339.351 390.5,339.5 Z"/></g>
<g><path style="opacity:1" fill="#a9adb7" d="M 347.5,334.5 C 347.33,335.822 347.663,336.989 348.5,338C 345.961,340.37 343.628,342.87 341.5,345.5C 337.194,349.321 332.527,352.655 327.5,355.5C 321.959,358.436 316.959,362.103 312.5,366.5C 309.833,367.833 307.167,369.167 304.5,370.5C 303.005,370.011 301.671,369.345 300.5,368.5C 305.313,363.93 310.313,359.597 315.5,355.5C 316.262,353.738 317.596,352.738 319.5,352.5C 323.732,350.6 327.399,347.933 330.5,344.5C 330.973,343.094 331.973,342.427 333.5,342.5C 338.049,340.131 342.215,337.131 346,333.5C 346.383,334.056 346.883,334.389 347.5,334.5 Z"/></g>
<g><path style="opacity:1" fill="#b8dac8" d="M 371.5,342.5 C 367.153,346.164 362.487,349.498 357.5,352.5C 356.83,354.291 356.163,355.958 355.5,357.5C 355.201,355.396 355.534,353.396 356.5,351.5C 361.273,348.048 366.273,345.048 371.5,342.5 Z"/></g>
<g><path style="opacity:1" fill="#eff1f3" d="M 315.5,355.5 C 310.313,359.597 305.313,363.93 300.5,368.5C 299.5,369.167 298.5,369.833 297.5,370.5C 298.543,367.944 300.21,365.777 302.5,364C 306.734,360.918 311.067,358.084 315.5,355.5 Z"/></g>
<g><path style="opacity:1" fill="#f2f3f4" d="M 327.5,355.5 C 323.041,359.897 318.041,363.564 312.5,366.5C 316.959,362.103 321.959,358.436 327.5,355.5 Z"/></g>
<g><path style="opacity:1" fill="#c7e0d4" d="M 354.5,366.5 C 354.678,370.122 354.011,373.456 352.5,376.5C 352.549,372.922 353.215,369.589 354.5,366.5 Z"/></g>
<g><path style="opacity:1" fill="#cae3d6" d="M 363.5,357.5 C 363.578,371.805 360.245,385.138 353.5,397.5C 353.629,395.784 353.962,394.117 354.5,392.5C 356.462,389.135 357.962,385.468 359,381.5C 360.844,373.42 362.344,365.42 363.5,357.5 Z"/></g>
<g><path style="opacity:1" fill="#f5f5f7" d="M 196.5,385.5 C 193.402,377.712 190.568,369.712 188,361.5C 185.952,360.577 184.119,361.077 182.5,363C 185.206,369.286 187.206,375.786 188.5,382.5C 185.901,376.212 183.568,369.712 181.5,363C 182.964,360.104 185.297,359.104 188.5,360C 191.872,368.284 194.539,376.784 196.5,385.5 Z"/></g>
<g><path style="opacity:1" fill="#80b4d9" d="M 300.5,368.5 C 301.671,369.345 303.005,370.011 304.5,370.5C 304.69,373.855 305.69,376.855 307.5,379.5C 308.362,382.823 309.028,386.323 309.5,390C 309.472,391.07 309.139,391.903 308.5,392.5C 307.616,395.023 306.782,397.69 306,400.5C 304.07,404.169 301.903,404.169 299.5,400.5C 300.374,398.253 300.708,395.92 300.5,393.5C 300.5,390.833 300.5,388.167 300.5,385.5C 300.124,380.374 299.124,375.374 297.5,370.5C 298.5,369.833 299.5,369.167 300.5,368.5 Z"/></g>
<g><path style="opacity:1" fill="#dbe7f0" d="M 312.5,366.5 C 310.425,368.719 308.091,370.719 305.5,372.5C 306.946,374.618 307.613,376.951 307.5,379.5C 305.69,376.855 304.69,373.855 304.5,370.5C 307.167,369.167 309.833,367.833 312.5,366.5 Z"/></g>
<g><path style="opacity:1" fill="#deeaf4" d="M 297.5,370.5 C 299.124,375.374 300.124,380.374 300.5,385.5C 299.209,381.284 297.876,376.951 296.5,372.5C 296.543,371.584 296.876,370.917 297.5,370.5 Z"/></g>
<g><path style="opacity:1" fill="#86bfa3" d="M 352.5,376.5 C 352.643,378.262 352.309,379.929 351.5,381.5C 353.163,384.634 354.163,388.301 354.5,392.5C 353.962,394.117 353.629,395.784 353.5,397.5C 349.955,399.243 347.289,398.243 345.5,394.5C 348.256,388.547 350.59,382.547 352.5,376.5 Z"/></g>
<g><path style="opacity:1" fill="#aaadb8" d="M 196.5,385.5 C 197.404,386.209 197.737,387.209 197.5,388.5C 198.592,394.433 200.259,400.1 202.5,405.5C 202.336,408.187 202.503,410.854 203,413.5C 203.66,415.324 204.827,416.657 206.5,417.5C 209,420.494 211,423.827 212.5,427.5C 213.41,430.992 215.076,433.992 217.5,436.5C 218.15,438.435 218.483,440.435 218.5,442.5C 216.5,442.5 214.5,442.5 212.5,442.5C 211.873,438.58 210.207,435.247 207.5,432.5C 205.75,431.341 204.75,429.674 204.5,427.5C 202.193,422.551 199.526,417.884 196.5,413.5C 196.5,413.167 196.5,412.833 196.5,412.5C 196.379,405.348 194.712,398.682 191.5,392.5C 189.723,389.495 188.723,386.162 188.5,382.5C 187.206,375.786 185.206,369.286 182.5,363C 184.119,361.077 185.952,360.577 188,361.5C 190.568,369.712 193.402,377.712 196.5,385.5 Z"/></g>
<g><path style="opacity:1" fill="#f3f4f5" d="M 197.5,388.5 C 200.146,393.782 201.813,399.448 202.5,405.5C 200.259,400.1 198.592,394.433 197.5,388.5 Z"/></g>
<g><path style="opacity:1" fill="#f4f5f6" d="M 191.5,392.5 C 194.712,398.682 196.379,405.348 196.5,412.5C 194.859,405.937 193.193,399.27 191.5,392.5 Z"/></g>
<g><path style="opacity:1" fill="#d4e6f2" d="M 308.5,392.5 C 308.649,395.607 308.149,398.607 307,401.5C 304.912,405.179 302.245,405.512 299,402.5C 298.68,399.28 299.18,396.28 300.5,393.5C 300.708,395.92 300.374,398.253 299.5,400.5C 301.903,404.169 304.07,404.169 306,400.5C 306.782,397.69 307.616,395.023 308.5,392.5 Z"/></g>
<g><path style="opacity:1" fill="#a7aab4" d="M 291.5,403.5 C 293.701,403.858 295.035,405.192 295.5,407.5C 292.235,415.044 288.235,422.044 283.5,428.5C 282.167,429.5 280.833,430.5 279.5,431.5C 279.631,430.761 279.464,430.094 279,429.5C 277.374,432.066 275.874,431.899 274.5,429C 276.464,427.549 277.797,425.716 278.5,423.5C 280.836,421.996 282.669,419.996 284,417.5C 286.258,412.647 288.758,407.981 291.5,403.5 Z"/></g>
<g><path style="opacity:1" fill="#f2f2f3" d="M 202.5,405.5 C 203.017,409.704 204.35,413.704 206.5,417.5C 204.827,416.657 203.66,415.324 203,413.5C 202.503,410.854 202.336,408.187 202.5,405.5 Z"/></g>
<g><path style="opacity:1" fill="#f4f4f5" d="M 291.5,403.5 C 288.758,407.981 286.258,412.647 284,417.5C 282.669,419.996 280.836,421.996 278.5,423.5C 282.483,417.543 285.983,411.209 289,404.5C 289.671,403.748 290.504,403.414 291.5,403.5 Z"/></g>
<g><path style="opacity:1" fill="#f3f3f5" d="M 291.5,403.5 C 292.542,402.209 293.708,402.209 295,403.5C 296.301,405.365 296.635,407.365 296,409.5C 293.149,416.822 288.982,423.156 283.5,428.5C 288.235,422.044 292.235,415.044 295.5,407.5C 295.035,405.192 293.701,403.858 291.5,403.5 Z"/></g>
<g><path style="opacity:1" fill="#f2f2f4" d="M 196.5,413.5 C 199.526,417.884 202.193,422.551 204.5,427.5C 200.548,423.553 197.881,418.886 196.5,413.5 Z"/></g>
<g><path style="opacity:1" fill="#f0f1f3" d="M 212.5,427.5 C 214.924,430.008 216.59,433.008 217.5,436.5C 215.076,433.992 213.41,430.992 212.5,427.5 Z"/></g>
<g><path style="opacity:1" fill="#b9bdc6" d="M 278.5,423.5 C 277.797,425.716 276.464,427.549 274.5,429C 275.874,431.899 277.374,432.066 279,429.5C 279.464,430.094 279.631,430.761 279.5,431.5C 277.36,434.061 275.027,436.395 272.5,438.5C 268.653,442.219 264.153,443.219 259,441.5C 258.313,439.08 258.813,436.913 260.5,435C 267.414,432.583 273.414,428.75 278.5,423.5 Z"/></g>
<g><path style="opacity:1" fill="#f4f5f6" d="M 283.5,428.5 C 281.108,433.225 277.441,436.558 272.5,438.5C 275.027,436.395 277.36,434.061 279.5,431.5C 280.833,430.5 282.167,429.5 283.5,428.5 Z"/></g>
<g><path style="opacity:1" fill="#eaeef2" d="M 207.5,432.5 C 210.207,435.247 211.873,438.58 212.5,442.5C 212.167,443.5 211.5,444.167 210.5,444.5C 210.539,443.417 210.873,442.417 211.5,441.5C 209.88,438.596 208.547,435.596 207.5,432.5 Z"/></g>
<g><path style="opacity:1" fill="#7ab3dd" d="M 212.5,442.5 C 214.5,442.5 216.5,442.5 218.5,442.5C 219.609,443.29 220.942,443.79 222.5,444C 227.155,444.499 231.821,444.666 236.5,444.5C 242.358,444.178 248.025,444.511 253.5,445.5C 254.66,446.265 255.66,447.265 256.5,448.5C 255.754,449.736 255.421,451.07 255.5,452.5C 250.5,452.5 245.5,452.5 240.5,452.5C 231.817,452.332 223.151,451.832 214.5,451C 211.388,450.546 209.722,448.713 209.5,445.5C 209.624,444.893 209.957,444.56 210.5,444.5C 211.5,444.167 212.167,443.5 212.5,442.5 Z"/></g>
<g><path style="opacity:1" fill="#dae8f2" d="M 217.5,436.5 C 219.779,437.868 220.446,439.702 219.5,442C 225.288,442.961 230.955,443.795 236.5,444.5C 231.821,444.666 227.155,444.499 222.5,444C 220.942,443.79 219.609,443.29 218.5,442.5C 218.483,440.435 218.15,438.435 217.5,436.5 Z"/></g>
<g><path style="opacity:1" fill="#c8dfef" d="M 253.5,445.5 C 254.822,445.33 255.989,445.663 257,446.5C 257.286,448.999 257.119,451.165 256.5,453C 250.984,453.817 245.65,453.651 240.5,452.5C 245.5,452.5 250.5,452.5 255.5,452.5C 255.421,451.07 255.754,449.736 256.5,448.5C 255.66,447.265 254.66,446.265 253.5,445.5 Z"/></g>
</svg>
