<svg width="143" height="143" viewBox="0 0 143 143" fill="none" xmlns="http://www.w3.org/2000/svg">
<g clip-path="url(#clip0_20_178)">
<path d="M139.33 31.0221L133.741 30.3238C133.385 29.3449 132.985 28.3819 132.543 27.4384L136.003 22.9898C137.301 21.3221 137.153 18.9492 135.659 17.4552L125.545 7.34076C124.05 5.84652 121.678 5.69905 120.01 6.99639L115.562 10.4566C114.619 10.0147 113.656 9.61507 112.676 9.25897L111.978 3.67024C111.716 1.57356 109.934 0 107.821 0H93.5175C91.4046 0 89.6222 1.57356 89.3605 3.67024L88.6625 9.25897C87.6827 9.61507 86.7197 10.015 85.7765 10.4566L81.3285 6.99667C79.6608 5.69933 77.2881 5.8468 75.7939 7.34104L65.6794 17.4555C65.3532 17.7817 65.0952 18.1515 64.8983 18.545H68.1347C74.4597 18.545 79.8211 23.2777 80.6059 29.5538L80.6947 30.2638L81.2589 29.825C86.1374 26.0294 93.2687 26.2634 97.8631 30.8576L112.142 45.1366C116.615 49.6098 117.059 56.7484 113.175 61.7414L112.736 62.3055L113.447 62.3944C119.722 63.1792 124.455 68.5406 124.455 74.8655V78.102C124.848 77.9051 125.218 77.647 125.545 77.3208L135.659 67.2064C137.153 65.7124 137.301 63.3395 136.003 61.6718L132.543 57.2232C132.985 56.28 133.385 55.317 133.741 54.3378L139.33 53.6395C141.426 53.3775 143 51.5953 143 49.4825V35.1791C143 33.0662 141.426 31.284 139.33 31.0221Z" fill="#292929"/>
<path d="M58.0379 66.7148C47.9762 66.7148 39.7906 74.9008 39.7906 84.9621C40.7078 109.136 75.3716 109.13 76.2855 84.9619C76.2852 74.9005 68.0996 66.7148 58.0379 66.7148Z" fill="#292929"/>
<path d="M112.406 70.7086L103.456 69.5889C102.776 67.5816 101.962 65.6201 101.02 63.7194L106.562 56.5963C107.859 54.9286 107.712 52.5557 106.217 51.0614L91.9387 36.7827C90.4444 35.2884 88.0712 35.141 86.4038 36.4383L79.2809 41.9798C77.3798 41.0377 75.4183 40.2236 73.4115 39.5435L72.2918 30.5937C72.0298 28.4973 70.2476 26.9243 68.1348 26.9243H47.9416C45.829 26.9243 44.0468 28.4973 43.7845 30.5937L42.6648 39.5438C40.6575 40.2244 38.696 41.0386 36.7954 41.9798L29.6722 36.4383C28.0048 35.141 25.6316 35.2884 24.1374 36.7827L9.85862 51.0614C8.36438 52.5557 8.21691 54.9286 9.51425 56.5963L15.0558 63.7192C14.1137 65.6203 13.2996 67.5818 12.6195 69.5886L3.66968 70.7083C1.573 70.9705 0 72.7527 0 74.8656V95.0588C0 97.1714 1.573 98.9536 3.6694 99.2159L12.6195 100.336C13.3001 102.343 14.1143 104.304 15.0555 106.205L9.51397 113.328C8.21636 114.996 8.3641 117.369 9.85834 118.863L24.1371 133.142C25.6314 134.636 28.0045 134.783 29.6719 133.486L36.7948 127.945C38.696 128.887 40.6578 129.701 42.6643 130.381L43.784 139.331C44.046 141.427 45.8281 143 47.941 143H68.1342C70.2468 143 72.029 141.427 72.2913 139.331L73.4109 130.381C75.4183 129.7 77.3798 128.886 79.2804 127.945L86.4033 133.486C88.071 134.784 90.4441 134.636 91.9381 133.142L106.217 118.863C107.711 117.369 107.859 114.996 106.561 113.328L101.02 106.205C101.962 104.304 102.776 102.343 103.456 100.336L112.406 99.2161C114.502 98.9541 116.075 97.172 116.075 95.0591V74.8659C116.076 72.7527 114.503 70.9705 112.406 70.7086ZM58.0379 111.588C43.3561 111.588 31.4117 99.644 31.4117 84.9622C32.7504 49.6873 83.331 49.6971 84.6644 84.9625C84.6641 99.644 72.7197 111.588 58.0379 111.588Z" fill="#292929"/>
</g>
<defs>
<clipPath id="clip0_20_178">
<rect width="143" height="143" fill="white"/>
</clipPath>
</defs>
</svg>
