<svg width="156" height="156" viewBox="0 0 156 156" fill="none" xmlns="http://www.w3.org/2000/svg">
<g clip-path="url(#clip0_20_146)">
<path d="M155.22 11.6999C148.298 5.21611 141.083 8.57986 135.281 11.2611C129.48 13.9424 125.824 15.3561 121.924 12.7724V8.77486C121.924 7.96032 121.6 7.17913 121.024 6.60316C120.448 6.02719 119.667 5.70361 118.852 5.70361C118.038 5.70361 117.257 6.02719 116.681 6.60316C116.105 7.17913 115.781 7.96032 115.781 8.77486V73.3686C115.781 74.1832 116.105 74.9643 116.681 75.5403C117.257 76.1163 118.038 76.4399 118.852 76.4399C119.667 76.4399 120.448 76.1163 121.024 75.5403C121.6 74.9643 121.924 74.1832 121.924 73.3686V41.4861C123.278 42.0034 124.715 42.2678 126.165 42.2661C130.061 41.9851 133.851 40.8713 137.28 38.9999C143.52 36.0749 147.615 34.5149 151.905 38.6099C152.235 38.9283 152.653 39.1404 153.105 39.2186C153.557 39.2968 154.022 39.2376 154.44 39.0486C154.902 38.8853 155.301 38.581 155.581 38.1786C155.861 37.7763 156.008 37.2962 156 36.8061V13.4061C156.008 13.0812 155.942 12.7588 155.806 12.4632C155.671 12.1676 155.471 11.9066 155.22 11.6999Z" fill="#292929"/>
<path d="M22.815 84.6299C16.8016 84.6424 11.0352 87.0234 6.76487 91.2572C2.49454 95.4911 0.0640959 101.237 0 107.25C0 118.999 18.7687 144.836 20.9137 147.712C21.1276 148.017 21.4125 148.265 21.7438 148.435C22.075 148.605 22.4427 148.692 22.815 148.687C23.188 148.696 23.5572 148.611 23.8892 148.441C24.2212 148.271 24.5055 148.02 24.7163 147.712C26.8612 144.836 45.6787 118.999 45.6787 107.25C45.6146 101.228 43.1774 95.4753 38.8965 91.2401C34.6157 87.0049 28.8368 84.6295 22.815 84.6299ZM22.815 118.072C20.7236 118.062 18.6816 117.436 16.9447 116.27C15.2079 115.105 13.8535 113.453 13.0512 111.522C12.2488 109.591 12.0342 107.465 12.4342 105.412C12.8342 103.36 13.831 101.47 15.2998 99.9815C16.7686 98.4926 18.6441 97.4702 20.6913 97.0423C22.7385 96.6144 24.8665 96.8001 26.8087 97.5761C28.7508 98.3521 30.4209 99.6839 31.6096 101.405C32.7983 103.125 33.4529 105.159 33.4912 107.25C33.5173 108.666 33.26 110.073 32.7345 111.388C32.209 112.703 31.4259 113.9 30.4313 114.908C29.4366 115.917 28.2505 116.716 26.9426 117.259C25.6346 117.803 24.2313 118.079 22.815 118.072Z" fill="#292929"/>
<path d="M106.47 75.8059C106.792 76.1213 107.173 76.3698 107.591 76.5372C108.01 76.7045 108.457 76.7874 108.908 76.7809C109.359 76.7991 109.809 76.7158 110.224 76.5372C110.639 76.3645 111.019 76.1166 111.345 75.8059C111.666 75.4698 111.915 75.0716 112.076 74.6359C112.254 74.2379 112.338 73.8041 112.32 73.3684C112.326 72.9179 112.244 72.4705 112.076 72.0522C111.909 71.6338 111.66 71.2527 111.345 70.9309C111.019 70.6211 110.639 70.3733 110.224 70.1997C109.809 70.0174 109.361 69.9208 108.908 69.9157C108.455 69.9107 108.005 69.9973 107.587 70.1703C107.168 70.3433 106.788 70.5992 106.471 70.9226C106.153 71.246 105.904 71.6302 105.739 72.0522C105.54 72.4621 105.44 72.9129 105.446 73.3684C105.463 73.8736 105.579 74.3705 105.788 74.8309C105.959 75.1919 106.189 75.5215 106.47 75.8059Z" fill="#292929"/>
<path d="M100.864 76.5863C101.778 76.5609 102.646 76.1799 103.283 75.5244C103.92 74.8689 104.277 73.9905 104.276 73.0763C104.108 72.2991 103.678 71.6035 103.057 71.1064C102.436 70.6093 101.663 70.341 100.868 70.3468C100.073 70.3525 99.3042 70.6318 98.6908 71.1378C98.0774 71.6437 97.6569 72.3455 97.5 73.125C97.4996 74.0264 97.8509 74.8923 98.4791 75.5387C99.1072 76.185 99.9628 76.5609 100.864 76.5863Z" fill="#292929"/>
<path d="M92.625 76.976C93.0737 76.9392 93.5108 76.8139 93.9109 76.6075C94.311 76.401 94.6663 76.1174 94.9563 75.773C95.2463 75.4286 95.4653 75.0302 95.6007 74.6008C95.7361 74.1714 95.7851 73.7194 95.745 73.271C95.6703 72.3609 95.239 71.5171 94.545 70.9236C93.8511 70.3301 92.9507 70.0348 92.04 70.1022C91.1181 70.1913 90.2644 70.6268 89.6512 71.321C89.0863 72.0213 88.8076 72.9097 88.8712 73.8072C88.9081 74.2623 89.0346 74.7057 89.2435 75.1117C89.4524 75.5177 89.7396 75.8784 90.0885 76.1729C90.4375 76.4675 90.8412 76.6901 91.2765 76.8279C91.7118 76.9657 92.1701 77.016 92.625 76.976Z" fill="#292929"/>
<path d="M83.9962 77.9997H84.4837C85.3973 77.8639 86.2206 77.3735 86.775 76.6347C87.3123 75.8878 87.5395 74.9617 87.4087 74.051C87.2609 73.155 86.7717 72.3513 86.0437 71.8085C85.6762 71.5376 85.2586 71.3422 84.8152 71.2334C84.3718 71.1247 83.9112 71.1047 83.46 71.1747C83.0146 71.2429 82.5871 71.3986 82.2022 71.6329C81.8173 71.8672 81.4827 72.1754 81.2175 72.5397C80.6754 73.2844 80.4478 74.2124 80.5837 75.1235C80.7218 75.9284 81.14 76.6587 81.7645 77.185C82.389 77.7114 83.1795 78 83.9962 77.9997Z" fill="#292929"/>
<path d="M75.9038 80.0963C76.3898 80.0937 76.8704 79.9943 77.3175 79.8038C77.924 79.5166 78.4323 79.0569 78.779 78.4823C79.1256 77.9077 79.2951 77.2436 79.2663 76.5732C79.2375 75.9028 79.0117 75.2557 78.6171 74.7129C78.2225 74.1702 77.6766 73.7558 77.0477 73.5216C76.4188 73.2875 75.7349 73.2439 75.0814 73.3964C74.4279 73.549 73.8338 73.8908 73.3736 74.3791C72.9133 74.8675 72.6073 75.4807 72.4937 76.142C72.3801 76.8034 72.4641 77.4836 72.735 78.0975C73.0205 78.696 73.4696 79.2013 74.0304 79.555C74.5912 79.9088 75.2407 80.0964 75.9038 80.0963Z" fill="#292929"/>
<path d="M68.25 85.1175C68.7311 85.3085 69.2437 85.4077 69.7613 85.41C70.3896 85.4213 71.0089 85.2589 71.5509 84.9406C72.0928 84.6223 72.5363 84.1605 72.8325 83.6062C73.0973 83.2031 73.275 82.749 73.354 82.2732C73.4331 81.7974 73.4118 81.3103 73.2916 80.8432C73.1714 80.3761 72.9549 79.9392 72.6559 79.5607C72.357 79.1822 71.9822 78.8703 71.5557 78.6451C71.1292 78.4199 70.6603 78.2863 70.1791 78.2529C69.6979 78.2196 69.215 78.2871 68.7615 78.4513C68.3079 78.6155 67.8937 78.8726 67.5454 79.2063C67.1971 79.5399 66.9223 79.9427 66.7388 80.3887C66.5208 80.797 66.3869 81.2449 66.3451 81.7059C66.3032 82.1669 66.3543 82.6315 66.4952 83.0724C66.6361 83.5133 66.864 83.9215 67.1654 84.2727C67.4668 84.624 67.8356 84.9112 68.25 85.1175Z" fill="#292929"/>
<path d="M69.03 93.6974C69.4341 93.756 69.8446 93.756 70.2487 93.6974C70.6736 93.5404 71.0629 93.3005 71.3941 92.9916C71.7253 92.6827 71.9916 92.311 72.1777 91.898C72.3637 91.4851 72.4657 91.0393 72.4777 90.5866C72.4897 90.1339 72.4114 89.6833 72.2475 89.2611C72.0845 88.8289 71.8366 88.4337 71.5184 88.0988C71.2003 87.7639 70.8183 87.4961 70.395 87.3111C69.567 86.9725 68.6392 86.9725 67.8112 87.3111C66.9694 87.649 66.2911 88.2997 65.9184 89.1267C65.5458 89.9538 65.5079 90.8929 65.8125 91.7474C66.0935 92.356 66.5498 92.8668 67.1231 93.2143C67.6964 93.5617 68.3604 93.7299 69.03 93.6974Z" fill="#292929"/>
<path d="M78.2437 97.2076C78.4356 96.7953 78.535 96.346 78.535 95.8913C78.535 95.4366 78.4356 94.9873 78.2437 94.5751C78.11 94.1495 77.8893 93.7564 77.5956 93.4207C77.3019 93.085 76.9415 92.8141 76.5375 92.6251C76.122 92.4453 75.674 92.3525 75.2212 92.3525C74.7685 92.3525 74.3205 92.4453 73.905 92.6251C73.4728 92.7881 73.0776 93.036 72.7427 93.3541C72.4078 93.6723 72.14 94.0543 71.955 94.4776C71.5918 95.2992 71.5672 96.231 71.8867 97.0706C72.2061 97.9102 72.8437 98.5901 73.6612 98.9626C74.0659 99.1183 74.4951 99.2009 74.9287 99.2063C75.6187 99.2481 76.3051 99.0794 76.8971 98.7224C77.489 98.3655 77.9586 97.8373 78.2437 97.2076Z" fill="#292929"/>
<path d="M86.1413 100.181C86.3331 99.7688 86.4325 99.3196 86.4325 98.8648C86.4325 98.4101 86.3331 97.9609 86.1413 97.5486C85.7903 96.7122 85.1251 96.047 84.2888 95.6961C83.4445 95.3546 82.5005 95.3546 81.6563 95.6961C81.0228 95.9493 80.4798 96.3865 80.0973 96.9513C79.7148 97.5162 79.5103 98.1827 79.5103 98.8648C79.5103 99.547 79.7148 100.214 80.0973 100.778C80.4798 101.343 81.0228 101.78 81.6563 102.034C82.0392 102.218 82.4518 102.334 82.875 102.375C83.5823 102.406 84.281 102.21 84.8688 101.815C85.4565 101.42 85.9025 100.848 86.1413 100.181Z" fill="#292929"/>
<path d="M89.0663 105.398C89.5644 105.652 90.1156 105.786 90.675 105.788C91.3073 105.789 91.9279 105.617 92.4693 105.29C93.0107 104.964 93.4524 104.495 93.7463 103.935C94.1427 103.118 94.2067 102.178 93.9249 101.315C93.6431 100.451 93.0373 99.7301 92.235 99.3038C91.4269 98.8836 90.485 98.8016 89.6165 99.0759C88.748 99.3502 88.024 99.9582 87.6038 100.766C87.1836 101.574 87.1016 102.516 87.3758 103.385C87.6501 104.253 88.2582 104.977 89.0663 105.398Z" fill="#292929"/>
<path d="M94.6237 107.25C94.8292 108.147 95.3698 108.932 96.135 109.443C96.6943 109.783 97.3335 109.968 97.9875 109.98C98.5592 109.981 99.1222 109.839 99.6248 109.567C100.127 109.294 100.553 108.9 100.864 108.42C101.121 108.036 101.299 107.605 101.389 107.152C101.479 106.699 101.479 106.233 101.388 105.78C101.298 105.327 101.118 104.896 100.861 104.513C100.604 104.129 100.273 103.8 99.8887 103.545C99.1183 103.065 98.1905 102.908 97.305 103.106C96.8587 103.187 96.4338 103.358 96.0565 103.61C95.6791 103.861 95.3574 104.188 95.1112 104.568C94.8528 104.959 94.6763 105.398 94.5925 105.859C94.5087 106.32 94.5193 106.793 94.6237 107.25Z" fill="#292929"/>
<path d="M102.083 114.221C102.744 114.841 103.614 115.189 104.52 115.196C105.418 115.184 106.277 114.829 106.921 114.204C107.564 113.578 107.944 112.729 107.981 111.832C107.992 111.263 107.863 110.699 107.604 110.192C107.345 109.684 106.965 109.249 106.497 108.923C106.029 108.598 105.489 108.393 104.923 108.327C104.357 108.261 103.784 108.335 103.253 108.544C102.723 108.753 102.253 109.089 101.884 109.523C101.515 109.957 101.259 110.475 101.138 111.032C101.017 111.589 101.036 112.167 101.192 112.714C101.348 113.262 101.638 113.763 102.034 114.172L102.083 114.221Z" fill="#292929"/>
<path d="M110.614 115.927C110.213 115.671 109.764 115.501 109.294 115.429C108.824 115.357 108.344 115.383 107.885 115.507C107.426 115.631 106.998 115.85 106.629 116.149C106.259 116.447 105.956 116.82 105.739 117.243C105.492 117.63 105.333 118.066 105.274 118.522C105.215 118.977 105.257 119.439 105.398 119.876C105.599 120.602 106.032 121.242 106.63 121.699C107.228 122.157 107.959 122.407 108.712 122.411C109.003 122.457 109.299 122.457 109.59 122.411C110.468 122.16 111.214 121.577 111.669 120.785C112.124 119.993 112.253 119.055 112.028 118.17C111.867 117.266 111.36 116.461 110.614 115.927Z" fill="#292929"/>
<path d="M109.59 124.166C108.833 123.714 107.933 123.567 107.072 123.756C106.211 123.945 105.455 124.456 104.957 125.183C104.46 125.911 104.258 126.801 104.395 127.672C104.531 128.543 104.994 129.329 105.69 129.87C106.268 130.253 106.946 130.457 107.64 130.455C108.158 130.457 108.67 130.339 109.135 130.111C109.6 129.882 110.006 129.55 110.321 129.139C110.619 128.772 110.837 128.347 110.962 127.891C111.087 127.436 111.116 126.959 111.048 126.492C110.979 126.024 110.814 125.576 110.563 125.176C110.312 124.776 109.981 124.432 109.59 124.166Z" fill="#292929"/>
<path d="M99.5475 129.529C99.143 129.765 98.7898 130.079 98.5087 130.454C98.2276 130.828 98.0243 131.255 97.9107 131.709C97.7972 132.164 97.7756 132.636 97.8474 133.099C97.9192 133.561 98.0829 134.005 98.3288 134.404C98.6472 134.909 99.0848 135.329 99.6032 135.627C100.122 135.924 100.705 136.09 101.303 136.11C101.918 136.086 102.518 135.919 103.057 135.622C103.449 135.389 103.79 135.079 104.058 134.71C104.326 134.341 104.516 133.922 104.617 133.477C104.85 132.605 104.727 131.676 104.276 130.894C104.057 130.492 103.761 130.137 103.404 129.851C103.047 129.564 102.637 129.351 102.197 129.224C101.757 129.097 101.296 129.059 100.842 129.111C100.387 129.163 99.947 129.305 99.5475 129.529Z" fill="#292929"/>
<path d="M92.3325 133.088C91.5028 133.461 90.8535 134.146 90.525 134.994C90.1966 135.843 90.2154 136.787 90.5775 137.621C90.863 138.22 91.3121 138.725 91.8729 139.079C92.4337 139.433 93.0832 139.62 93.7462 139.62C94.2175 139.627 94.6842 139.527 95.1113 139.328C95.5329 139.153 95.9145 138.894 96.233 138.567C96.5515 138.241 96.8001 137.852 96.9637 137.426C97.3053 136.582 97.3053 135.638 96.9637 134.794C96.7747 134.375 96.5042 133.998 96.1681 133.685C95.8319 133.372 95.4367 133.129 95.0057 132.97C94.5746 132.811 94.1162 132.74 93.6573 132.76C93.1983 132.78 92.748 132.892 92.3325 133.088Z" fill="#292929"/>
<path d="M76.9275 138.742C76.4911 138.864 76.0842 139.074 75.732 139.359C75.3799 139.644 75.0899 139.998 74.88 140.4C74.4425 141.205 74.3375 142.15 74.5875 143.032C74.7996 143.744 75.238 144.367 75.8363 144.807C76.4346 145.247 77.16 145.479 77.9025 145.47H78.8288C79.7107 145.199 80.4507 144.592 80.8886 143.78C81.3265 142.968 81.4271 142.017 81.1688 141.131C80.9186 140.255 80.333 139.512 79.539 139.065C78.7449 138.618 77.8066 138.502 76.9275 138.742Z" fill="#292929"/>
<path d="M84.7275 136.159C84.2983 136.311 83.9039 136.547 83.5675 136.854C83.2311 137.161 82.9595 137.532 82.7687 137.945C82.5779 138.359 82.4717 138.806 82.4565 139.261C82.4413 139.716 82.5173 140.17 82.68 140.595C82.9206 141.254 83.3587 141.823 83.9344 142.224C84.5102 142.626 85.1957 142.84 85.8975 142.837C86.2843 142.908 86.6807 142.908 87.0675 142.837C87.4967 142.685 87.8911 142.449 88.2275 142.142C88.5639 141.835 88.8355 141.464 89.0263 141.051C89.2171 140.637 89.3233 140.19 89.3385 139.735C89.3537 139.28 89.2777 138.826 89.115 138.401C88.9768 137.964 88.7531 137.559 88.457 137.209C88.1609 136.859 87.7983 136.571 87.3901 136.363C86.9819 136.154 86.5363 136.029 86.0793 135.994C85.6222 135.958 85.1627 136.015 84.7275 136.159Z" fill="#292929"/>
<path d="M68.9325 140.79C68.4889 140.877 68.0685 141.057 67.6989 141.317C67.3294 141.577 67.0188 141.913 66.7875 142.301C66.5491 142.673 66.3875 143.089 66.3122 143.524C66.2368 143.96 66.2493 144.406 66.3487 144.836C66.5232 145.602 66.9494 146.287 67.5592 146.782C68.169 147.277 68.9272 147.553 69.7125 147.566H70.4437C70.8823 147.467 71.297 147.282 71.6642 147.023C72.0313 146.763 72.3438 146.434 72.5837 146.054C72.8236 145.674 72.9863 145.25 73.0625 144.807C73.1386 144.364 73.1267 143.91 73.0275 143.471C72.9283 143.033 72.7436 142.618 72.4841 142.251C72.2246 141.884 71.8954 141.571 71.5151 141.331C71.1349 141.091 70.7111 140.929 70.2679 140.853C69.8248 140.776 69.371 140.788 68.9325 140.888V140.79Z" fill="#292929"/>
<path d="M60.8888 142.253C59.9928 142.4 59.1891 142.89 58.6463 143.618C58.3708 143.974 58.1686 144.382 58.0515 144.817C57.9343 145.252 57.9045 145.706 57.9638 146.153C58.0806 146.962 58.4846 147.703 59.102 148.24C59.7195 148.777 60.5093 149.074 61.3275 149.078H61.8638C62.7597 148.93 63.5635 148.44 64.1063 147.713C64.3815 147.346 64.5811 146.928 64.6934 146.483C64.8057 146.038 64.8285 145.576 64.7604 145.122C64.6924 144.668 64.5349 144.233 64.297 143.841C64.0592 143.449 63.7458 143.108 63.375 142.838C62.6554 142.323 61.7622 142.113 60.8888 142.253Z" fill="#292929"/>
<path d="M52.7475 143.13C51.8374 143.205 50.9937 143.636 50.4001 144.33C49.8066 145.024 49.5114 145.924 49.5787 146.835C49.662 147.702 50.0603 148.508 50.6982 149.101C51.3361 149.694 52.1693 150.033 53.04 150.052C53.4962 150.027 53.9427 149.911 54.3531 149.71C54.7634 149.509 55.1292 149.227 55.4287 148.882C55.999 148.174 56.2763 147.274 56.2038 146.367C56.1313 145.461 55.7144 144.616 55.0387 144.007C54.4054 143.449 53.5919 143.137 52.7475 143.13Z" fill="#292929"/>
<path d="M44.5575 143.422C43.648 143.435 42.7801 143.805 42.1415 144.453C41.5029 145.101 41.1449 145.974 41.145 146.884C41.133 147.335 41.2133 147.784 41.3809 148.203C41.5486 148.622 41.8001 149.003 42.12 149.321C42.7758 149.949 43.6495 150.299 44.5575 150.296C45.0097 150.303 45.4587 150.219 45.8784 150.05C46.2981 149.882 46.68 149.632 47.0021 149.314C47.3241 148.996 47.5799 148.618 47.7544 148.201C47.9289 147.784 48.0188 147.336 48.0188 146.884C48.0188 145.966 47.6541 145.085 47.005 144.436C46.3559 143.787 45.4755 143.422 44.5575 143.422Z" fill="#292929"/>
<path d="M39 145.031V144.641C38.8316 144.392 38.6354 144.163 38.415 143.959L37.9275 143.569H37.5863L37.05 143.325C36.4277 143.155 35.7711 143.155 35.1488 143.325C34.7068 143.473 34.306 143.724 33.9788 144.056C33.7323 144.254 33.5325 144.503 33.3938 144.787V145.031V145.421C33.3832 145.632 33.3832 145.844 33.3938 146.055V146.494C33.3749 147.357 33.6891 148.195 34.2713 148.834C34.6094 149.211 35.0252 149.51 35.49 149.711C35.9129 149.862 36.3573 149.945 36.8063 149.955C37.7133 149.952 38.5852 149.604 39.2438 148.98C39.4569 148.148 39.3706 147.268 39 146.494C39 146.494 39 146.104 39 145.957C39.0421 145.65 39.0421 145.338 39 145.031Z" fill="#292929"/>
</g>
<defs>
<clipPath id="clip0_20_146">
<rect width="156" height="156" fill="white"/>
</clipPath>
</defs>
</svg>
