<svg width="156" height="156" viewBox="0 0 156 156" fill="none" xmlns="http://www.w3.org/2000/svg">
<g clip-path="url(#clip0_20_174)">
<path d="M152.802 0.0194746C122.35 -0.526525 87.62 15.392 65.637 40.0855C44.629 40.482 24.1735 49.0945 9.113 64.155C8.2355 65.0195 7.9235 66.313 8.307 67.483C8.697 68.6595 9.711 69.511 10.933 69.6865L35.984 73.2745L32.89 76.739C31.7395 78.026 31.798 79.9825 33.02 81.2045L74.7955 122.98C75.426 123.61 76.258 123.929 77.0965 123.929C77.87 123.929 78.6435 123.656 79.261 123.103L82.7255 120.009L86.3135 145.06C86.489 146.282 87.451 147.179 88.6145 147.569C88.9135 147.667 89.2255 147.712 89.544 147.712C90.467 147.712 91.4095 147.309 92.0595 146.666C106.912 131.813 115.525 111.358 115.921 90.35C140.641 68.3215 156.689 33.605 155.981 3.19147C155.935 1.46247 154.538 0.0649746 152.802 0.0194746ZM122.85 56.1275C119.685 59.293 115.525 60.879 111.358 60.879C107.192 60.879 103.032 59.293 99.866 56.1275C93.535 49.79 93.535 39.481 99.866 33.1435C106.204 26.806 116.513 26.806 122.85 33.1435C129.188 39.481 129.188 49.7965 122.85 56.1275Z" fill="#292929"/>
<path d="M17.706 109.883C10.751 116.838 1.20251 148.259 0.136507 151.814C-0.207993 152.958 0.110507 154.2 0.949007 155.045C1.57301 155.669 2.39851 156 3.25001 156C3.56201 156 3.87401 155.955 4.18601 155.864C7.74151 154.798 39.1625 145.249 46.1175 138.294C53.95 130.462 53.95 117.715 46.1175 109.883C38.2785 102.05 25.5385 102.057 17.706 109.883Z" fill="#292929"/>
</g>
<defs>
<clipPath id="clip0_20_174">
<rect width="156" height="156" fill="white"/>
</clipPath>
</defs>
</svg>
