<svg width="121" height="121" viewBox="0 0 121 121" fill="none" xmlns="http://www.w3.org/2000/svg">
<g clip-path="url(#clip0_20_174)">
<path d="M118.52 0.014955C94.8993 -0.408545 67.9617 11.9385 50.9108 31.0918C34.6161 31.3993 18.75 38.0795 7.06843 49.7611C6.38781 50.4316 6.14581 51.4349 6.44327 52.3424C6.74577 53.255 7.53227 53.9154 8.4801 54.0515L27.9107 56.8345L25.5109 59.5218C24.6185 60.52 24.6639 62.0375 25.6117 62.9854L58.0145 95.3882C58.5035 95.8772 59.1489 96.1243 59.7992 96.1243C60.3992 96.1243 60.9991 95.9125 61.4781 95.484L64.1653 93.0841L66.9483 112.515C67.0844 113.463 67.8306 114.158 68.7331 114.461C68.965 114.536 69.207 114.572 69.454 114.572C70.1699 114.572 70.901 114.259 71.4051 113.76C82.9254 102.24 89.6056 86.3737 89.9131 70.079C109.087 52.9928 121.534 26.0652 120.985 2.47529C120.95 1.1342 119.866 0.0502467 118.52 0.014955ZM95.2875 43.5346C92.8322 45.9899 89.6056 47.2201 86.3739 47.2201C83.1422 47.2201 79.9155 45.9899 77.4602 43.5346C72.5496 38.619 72.5496 30.6229 77.4602 25.7073C82.3758 20.7917 90.3719 20.7917 95.2875 25.7073C100.203 30.6229 100.203 38.624 95.2875 43.5346Z" fill="#EAEAEA"/>
<path d="M13.7335 85.2293C8.3389 90.6239 0.932693 114.995 0.105859 117.753C-0.161349 118.64 0.0856926 119.603 0.736068 120.259C1.22007 120.743 1.86036 121 2.52082 121C2.76282 121 3.00482 120.965 3.24682 120.894C6.00461 120.067 30.376 112.661 35.7706 107.266C41.8458 101.191 41.8458 91.3045 35.7706 85.2293C29.6904 79.1541 19.8087 79.1592 13.7335 85.2293Z" fill="#FFD100"/>
</g>
<defs>
<clipPath id="clip0_20_174">
<rect width="121" height="121" fill="white"/>
</clipPath>
</defs>
</svg>
