<svg width="98" height="98" viewBox="0 0 98 98" fill="none" xmlns="http://www.w3.org/2000/svg">
<g clip-path="url(#clip0_20_184)">
<path d="M83.4983 19.9424C82.3338 15.28 79.7309 11.0516 76.0428 7.88442C71.8173 4.25593 66.4268 2.25784 60.8635 2.25784C56.6899 2.25784 52.692 3.33412 49.1635 5.39039C45.4266 1.97303 40.527 0.0532227 35.3786 0.0532227C24.3358 0.0532227 15.3102 8.85619 14.95 19.8127C11.1324 20.8798 7.67577 23.0518 5.03341 26.0816C1.78773 29.8037 0 34.5701 0 39.5028C0 50.7734 9.16913 59.9425 20.4397 59.9425H77.5603C88.8309 59.9425 98 50.7734 98 39.5028C98 30.4663 92.0067 22.528 83.4983 19.9424Z" fill="#EAEAEA"/>
<path d="M30.8164 65.6847V71.1493H20.6533C19.4 66.7365 15.3366 63.4937 10.5273 63.4937C4.72257 63.4937 0 68.2162 0 74.021C0 79.8258 4.72257 84.5483 10.5273 84.5483C15.337 84.5483 19.4006 81.305 20.6537 76.8915H33.6875C35.2723 76.8915 36.5586 75.6072 36.5586 74.0204V65.6847H30.8164Z" fill="#EAEAEA"/>
<path d="M51.8711 77.2937V65.6851H46.1289V77.2937C41.7157 78.5468 38.4727 82.6103 38.4727 87.4198C38.4727 93.2246 43.1952 97.9472 49 97.9472C54.8048 97.9472 59.5273 93.2246 59.5273 87.4198C59.5273 82.6103 56.2843 78.5468 51.8711 77.2937Z" fill="#FFD100"/>
<path d="M87.4727 63.4937C82.6634 63.4937 78.6 66.7365 77.3467 71.1493H67.1836V65.6847H61.4414V74.0204C61.4414 75.6072 62.7277 76.8915 64.3125 76.8915H77.3463C78.5994 81.305 82.663 84.5483 87.4727 84.5483C93.2774 84.5483 98 79.8258 98 74.021C98 68.2162 93.2774 63.4937 87.4727 63.4937Z" fill="#EAEAEA"/>
</g>
<defs>
<clipPath id="clip0_20_184">
<rect width="98" height="98" fill="white"/>
</clipPath>
</defs>
</svg>
