<svg width="116" height="116" viewBox="0 0 116 116" fill="none" xmlns="http://www.w3.org/2000/svg">
<g clip-path="url(#clip0_20_178)">
<path d="M113.023 25.1647L108.489 24.5983C108.2 23.8042 107.876 23.0231 107.518 22.2577L110.324 18.649C111.377 17.2962 111.257 15.3714 110.045 14.1595L101.84 5.95474C100.628 4.74263 98.7036 4.62301 97.3508 5.67539L93.7425 8.48227C92.9777 8.12385 92.1962 7.79964 91.4015 7.51077L90.8353 2.97726C90.6228 1.27645 89.1771 0 87.4631 0H75.8604C74.1465 0 72.7005 1.27645 72.4883 2.97726L71.9221 7.51077C71.1273 7.79964 70.3461 8.12408 69.581 8.48227L65.9728 5.67562C64.62 4.62323 62.6953 4.74286 61.4832 5.95497L53.2785 14.1597C53.0138 14.4243 52.8045 14.7243 52.6448 15.0435H55.2702C60.4009 15.0435 64.75 18.8826 65.3866 23.9737L65.4587 24.5496L65.9164 24.1937C69.8737 21.1147 75.6585 21.3046 79.3855 25.0313L90.9685 36.6143C94.5971 40.2429 94.9571 46.0336 91.8063 50.0839L91.4504 50.5416L92.0268 50.6136C97.1174 51.2502 100.957 55.5993 100.957 60.7301V63.3555C101.276 63.1958 101.576 62.9864 101.84 62.7218L110.045 54.5171C111.257 53.3052 111.377 51.3803 110.324 50.0275L107.518 46.4188C107.876 45.6537 108.2 44.8725 108.489 44.0782L113.023 43.5118C114.724 43.2993 116 41.8536 116 40.1396V28.5369C116 26.823 114.724 25.3773 113.023 25.1647Z" fill="#EAEAEA"/>
<path d="M47.0797 54.1182C38.9178 54.1182 32.2777 60.7585 32.2777 68.9202C33.0217 88.5301 61.1406 88.5246 61.882 68.9199C61.8817 60.7583 55.2416 54.1182 47.0797 54.1182Z" fill="#FFD100"/>
<path d="M91.1828 57.3581L83.9226 56.4498C83.3705 54.8215 82.71 53.2304 81.9465 51.6886L86.4417 45.9104C87.4944 44.5576 87.3745 42.6327 86.1624 41.4206L74.5796 29.8378C73.3675 28.6257 71.4424 28.5061 70.0898 29.5584L64.3118 34.0537C62.7696 33.2895 61.1784 32.629 59.5506 32.0774L58.6423 24.8174C58.4298 23.1168 56.9841 21.8408 55.2701 21.8408H38.8897C37.176 21.8408 35.7303 23.1168 35.5175 24.8174L34.6092 32.0776C32.9809 32.6297 31.3898 33.2902 29.848 34.0537L24.0698 29.5584C22.7172 28.5061 20.7921 28.6257 19.58 29.8378L7.9972 41.4206C6.78509 42.6327 6.66547 44.5576 7.71785 45.9104L12.2131 51.6884C11.4489 53.2306 10.7885 54.8218 10.2368 56.4496L2.9768 57.3579C1.276 57.5706 0 59.0163 0 60.7303V77.1107C0 78.8245 1.276 80.2702 2.97658 80.4829L10.2368 81.3912C10.7889 83.0195 11.4493 84.6106 12.2129 86.1524L7.71762 91.9306C6.66502 93.2835 6.78487 95.2083 7.99698 96.4204L19.5798 108.003C20.7919 109.215 22.717 109.335 24.0695 108.283L29.8476 103.787C31.3898 104.552 32.9812 105.212 34.6088 105.764L35.5171 113.024C35.7296 114.724 37.1753 116 38.8892 116H55.2697C56.9834 116 58.4291 114.724 58.6419 113.024L59.5501 105.763C61.1784 105.212 62.7696 104.551 64.3113 103.787L70.0894 108.283C71.4422 109.335 73.3673 109.216 74.5792 108.003L86.1619 96.4204C87.3741 95.2083 87.4937 93.2835 86.4413 91.9306L81.9461 86.1526C82.7103 84.6104 83.3707 83.0193 83.9224 81.3914L91.1823 80.4831C92.8829 80.2706 94.1589 78.8249 94.1589 77.111V60.7305C94.1594 59.0163 92.8834 57.5706 91.1828 57.3581ZM47.0797 90.5194C35.17 90.5194 25.4808 80.8302 25.4808 68.9205C26.5667 40.3059 67.5972 40.3138 68.6788 68.9207C68.6786 80.8302 58.9894 90.5194 47.0797 90.5194Z" fill="#EAEAEA"/>
</g>
<defs>
<clipPath id="clip0_20_178">
<rect width="116" height="116" fill="white"/>
</clipPath>
</defs>
</svg>
