<svg width="116" height="116" viewBox="0 0 116 116" fill="none" xmlns="http://www.w3.org/2000/svg">
<g clip-path="url(#clip0_20_146)">
<path d="M115.42 8.69996C110.273 3.87871 104.908 6.37996 100.594 8.37371C96.28 10.3675 93.5613 11.4187 90.6613 9.49746V6.52496C90.6613 5.91927 90.4206 5.33839 89.9924 4.91011C89.5641 4.48182 88.9832 4.24121 88.3775 4.24121C87.7718 4.24121 87.1909 4.48182 86.7626 4.91011C86.3344 5.33839 86.0938 5.91927 86.0938 6.52496V54.5562C86.0938 55.1619 86.3344 55.7428 86.7626 56.1711C87.1909 56.5994 87.7718 56.84 88.3775 56.84C88.9832 56.84 89.5641 56.5994 89.9924 56.1711C90.4206 55.7428 90.6613 55.1619 90.6613 54.5562V30.8487C91.6682 31.2334 92.7371 31.43 93.815 31.4287C96.712 31.2197 99.5305 30.3915 102.08 29C106.72 26.825 109.765 25.665 112.955 28.71C113.2 28.9468 113.511 29.1045 113.847 29.1626C114.183 29.2208 114.529 29.1768 114.84 29.0362C115.184 28.9148 115.48 28.6885 115.689 28.3893C115.897 28.0901 116.006 27.7331 116 27.3687V9.96871C116.006 9.72711 115.957 9.48736 115.856 9.26756C115.756 9.04777 115.606 8.85368 115.42 8.69996Z" fill="#FFD100"/>
<path d="M16.965 62.9302C12.4935 62.9395 8.20567 64.71 5.03029 67.8582C1.85491 71.0064 0.0476611 75.2789 0 79.7502C0 88.4864 13.9562 107.699 15.5512 109.838C15.7103 110.064 15.9221 110.249 16.1684 110.375C16.4148 110.501 16.6882 110.566 16.965 110.563C17.2424 110.569 17.5169 110.506 17.7638 110.379C18.0106 110.253 18.222 110.067 18.3787 109.838C19.9737 107.699 33.9662 88.4864 33.9662 79.7502C33.9185 75.2726 32.1063 70.9947 28.9231 67.8455C25.7399 64.6962 21.4428 62.9299 16.965 62.9302ZM16.965 87.7977C15.4098 87.7903 13.8914 87.3242 12.5999 86.4577C11.3085 85.5913 10.3013 84.3631 9.70472 82.9269C9.10811 81.4907 8.94852 79.9104 9.24595 78.3839C9.54338 76.8574 10.2846 75.4526 11.3768 74.3455C12.469 73.2384 13.8635 72.4781 15.3858 72.1599C16.9081 71.8417 18.4905 71.9798 19.9346 72.5568C21.3788 73.1339 22.6206 74.1242 23.5046 75.4037C24.3885 76.6833 24.8752 78.1952 24.9037 79.7502C24.9231 80.8031 24.7318 81.8494 24.341 82.8273C23.9503 83.8053 23.368 84.6953 22.6284 85.445C21.8888 86.1948 21.0068 86.7891 20.0342 87.1931C19.0616 87.5971 18.0181 87.8027 16.965 87.7977Z" fill="#EAEAEA"/>
<path d="M79.17 56.3688C79.4093 56.6033 79.6927 56.7881 80.0037 56.9126C80.3148 57.037 80.6475 57.0986 80.9825 57.0938C81.3182 57.1073 81.6527 57.0454 81.9613 56.9125C82.2703 56.7842 82.5529 56.5998 82.795 56.3688C83.0336 56.1188 83.2186 55.8228 83.3388 55.4988C83.471 55.2028 83.5331 54.8802 83.52 54.5563C83.5248 54.2213 83.4632 53.8886 83.3388 53.5775C83.2143 53.2665 83.0295 52.9831 82.795 52.7438C82.5524 52.5134 82.2699 52.3292 81.9613 52.2C81.6527 52.0645 81.32 51.9927 80.983 51.9889C80.646 51.9852 80.3117 52.0496 80.0002 52.1782C79.6888 52.3069 79.4065 52.4971 79.1704 52.7376C78.9343 52.9781 78.7492 53.2638 78.6263 53.5775C78.4785 53.8824 78.404 54.2176 78.4087 54.5563C78.4212 54.9319 78.5074 55.3015 78.6625 55.6438C78.7898 55.9122 78.9613 56.1573 79.17 56.3688Z" fill="#EAEAEA"/>
<path d="M75.0013 56.9488C75.6808 56.9299 76.3262 56.6466 76.8001 56.1592C77.274 55.6717 77.539 55.0186 77.5387 54.3388C77.4138 53.7609 77.0936 53.2436 76.6321 52.874C76.1706 52.5044 75.5959 52.3049 75.0046 52.3091C74.4134 52.3134 73.8416 52.5211 73.3855 52.8973C72.9293 53.2736 72.6167 53.7954 72.5 54.375C72.4997 55.0453 72.7609 55.6891 73.228 56.1698C73.6951 56.6504 74.3313 56.9299 75.0013 56.9488Z" fill="#EAEAEA"/>
<path d="M68.875 57.2389C69.2087 57.2115 69.5336 57.1184 69.8312 56.9649C70.1287 56.8113 70.3929 56.6005 70.6086 56.3444C70.8242 56.0883 70.9871 55.792 71.0877 55.4727C71.1884 55.1534 71.2248 54.8173 71.195 54.4839C71.1395 53.8071 70.8188 53.1797 70.3027 52.7384C69.7867 52.2971 69.1172 52.0775 68.44 52.1276C67.7545 52.1938 67.1197 52.5177 66.6638 53.0339C66.2436 53.5546 66.0364 54.2152 66.0838 54.8826C66.1111 55.2211 66.2052 55.5507 66.3606 55.8526C66.5159 56.1545 66.7295 56.4227 66.9889 56.6418C67.2484 56.8608 67.5486 57.0263 67.8723 57.1288C68.196 57.2313 68.5368 57.2687 68.875 57.2389Z" fill="#EAEAEA"/>
<path d="M62.4587 58H62.8212C63.5006 57.899 64.1127 57.5343 64.525 56.985C64.9245 56.4295 65.0934 55.741 64.9963 55.0637C64.8863 54.3975 64.5225 53.7998 63.9812 53.3962C63.7079 53.1948 63.3974 53.0495 63.0677 52.9686C62.738 52.8877 62.3955 52.8729 62.06 52.925C61.7288 52.9757 61.4109 53.0915 61.1247 53.2657C60.8385 53.4399 60.5897 53.6691 60.3925 53.94C59.9894 54.4937 59.8202 55.1838 59.9213 55.8612C60.0239 56.4598 60.3349 57.0028 60.7993 57.3942C61.2636 57.7856 61.8514 58.0001 62.4587 58Z" fill="#EAEAEA"/>
<path d="M56.4413 59.5586C56.8026 59.5567 57.16 59.4827 57.4925 59.3411C57.9435 59.1275 58.3215 58.7857 58.5792 58.3585C58.837 57.9312 58.963 57.4374 58.9416 56.9389C58.9202 56.4403 58.7523 55.9592 58.4589 55.5556C58.1654 55.152 57.7595 54.8439 57.2919 54.6697C56.8243 54.4956 56.3157 54.4633 55.8297 54.5767C55.3438 54.6901 54.9021 54.9442 54.5599 55.3074C54.2176 55.6705 53.99 56.1265 53.9056 56.6183C53.8211 57.1101 53.8835 57.6158 54.085 58.0723C54.2973 58.5173 54.6313 58.8931 55.0483 59.1561C55.4653 59.4192 55.9482 59.5587 56.4413 59.5586Z" fill="#EAEAEA"/>
<path d="M50.75 63.2927C51.1077 63.4348 51.4889 63.5085 51.8737 63.5102C52.341 63.5186 52.8015 63.3978 53.2045 63.1612C53.6075 62.9245 53.9373 62.5811 54.1575 62.169C54.3544 61.8692 54.4865 61.5316 54.5453 61.1777C54.6041 60.8239 54.5883 60.4617 54.4989 60.1144C54.4095 59.7671 54.2485 59.4422 54.0262 59.1607C53.8039 58.8793 53.5252 58.6474 53.2081 58.4799C52.8909 58.3124 52.5422 58.2131 52.1844 58.1883C51.8266 58.1635 51.4676 58.2137 51.1303 58.3358C50.7931 58.4579 50.4851 58.6491 50.2261 58.8972C49.967 59.1453 49.7627 59.4448 49.6262 59.7765C49.4642 60.0801 49.3646 60.4131 49.3335 60.7559C49.3024 61.0987 49.3403 61.4442 49.4451 61.772C49.5499 62.0999 49.7194 62.4034 49.9435 62.6646C50.1676 62.9258 50.4419 63.1394 50.75 63.2927Z" fill="#EAEAEA"/>
<path d="M51.33 69.6725C51.6305 69.7161 51.9357 69.7161 52.2363 69.6725C52.5521 69.5558 52.8417 69.3774 53.0879 69.1477C53.3342 68.918 53.5322 68.6416 53.6706 68.3345C53.8089 68.0275 53.8847 67.696 53.8937 67.3593C53.9026 67.0227 53.8444 66.6876 53.7225 66.3737C53.6013 66.0523 53.4169 65.7585 53.1804 65.5094C52.9438 65.2604 52.6597 65.0613 52.345 64.9237C51.7293 64.6719 51.0394 64.6719 50.4238 64.9237C49.7978 65.175 49.2934 65.6588 49.0163 66.2738C48.7392 66.8888 48.711 67.5871 48.9375 68.2225C49.1464 68.675 49.4858 69.0549 49.9121 69.3132C50.3384 69.5716 50.8321 69.6967 51.33 69.6725Z" fill="#EAEAEA"/>
<path d="M58.1813 72.2825C58.3239 71.9759 58.3978 71.6419 58.3978 71.3038C58.3978 70.9656 58.3239 70.6316 58.1813 70.325C58.0818 70.0086 57.9177 69.7163 57.6993 69.4666C57.4809 69.217 57.2129 69.0155 56.9125 68.875C56.6035 68.7413 56.2704 68.6724 55.9338 68.6724C55.5971 68.6724 55.264 68.7413 54.955 68.875C54.6336 68.9962 54.3398 69.1806 54.0907 69.4171C53.8417 69.6537 53.6426 69.9378 53.505 70.2525C53.2349 70.8635 53.2167 71.5563 53.4542 72.1807C53.6917 72.805 54.1659 73.3105 54.7738 73.5875C55.0747 73.7033 55.3938 73.7647 55.7163 73.7688C56.2293 73.7998 56.7397 73.6744 57.1799 73.409C57.6201 73.1436 57.9693 72.7507 58.1813 72.2825Z" fill="#EAEAEA"/>
<path d="M64.0537 74.4937C64.1964 74.1872 64.2703 73.8531 64.2703 73.515C64.2703 73.1768 64.1964 72.8428 64.0537 72.5362C63.7928 71.9143 63.2982 71.4197 62.6763 71.1587C62.0485 70.9048 61.3465 70.9048 60.7187 71.1587C60.2477 71.347 59.8439 71.6721 59.5595 72.0921C59.2751 72.5121 59.123 73.0077 59.123 73.515C59.123 74.0222 59.2751 74.5178 59.5595 74.9378C59.8439 75.3578 60.2477 75.683 60.7187 75.8712C61.0035 76.0086 61.3103 76.0945 61.625 76.125C62.151 76.1481 62.6705 76.0022 63.1076 75.7086C63.5446 75.4151 63.8762 74.9894 64.0537 74.4937Z" fill="#EAEAEA"/>
<path d="M66.2288 78.3725C66.5992 78.5618 67.009 78.6612 67.425 78.6625C67.8952 78.6634 68.3566 78.5355 68.7592 78.2926C69.1618 78.0498 69.4902 77.7013 69.7088 77.285C70.0035 76.6771 70.0512 75.9786 69.8416 75.3364C69.632 74.6942 69.1816 74.1582 68.585 73.8412C67.9841 73.5288 67.2837 73.4678 66.6379 73.6718C65.9921 73.8757 65.4537 74.3279 65.1412 74.9287C64.8288 75.5296 64.7678 76.23 64.9718 76.8758C65.1757 77.5217 65.6279 78.06 66.2288 78.3725Z" fill="#EAEAEA"/>
<path d="M70.3612 79.7498C70.514 80.417 70.916 81.0006 71.485 81.381C71.9009 81.6332 72.3762 81.7708 72.8625 81.7798C73.2876 81.7811 73.7063 81.6755 74.08 81.4728C74.4537 81.2701 74.7705 80.9768 75.0013 80.6198C75.1922 80.3343 75.3249 80.014 75.3918 79.6771C75.4587 79.3403 75.4585 78.9936 75.3912 78.6568C75.3238 78.32 75.1906 77.9999 74.9993 77.7147C74.808 77.4295 74.5623 77.1848 74.2762 76.9948C73.7033 76.6384 73.0134 76.5212 72.355 76.6685C72.0232 76.7286 71.7072 76.8561 71.4266 77.0431C71.146 77.2302 70.9068 77.4728 70.7238 77.756C70.5316 78.0465 70.4003 78.373 70.338 78.7157C70.2757 79.0584 70.2836 79.4102 70.3612 79.7498Z" fill="#EAEAEA"/>
<path d="M75.9075 84.9338C76.3992 85.3945 77.0462 85.6533 77.72 85.6588C78.3875 85.6501 79.0263 85.386 79.505 84.9208C79.9837 84.4555 80.266 83.8245 80.2938 83.1576C80.302 82.734 80.2056 82.315 80.0131 81.9377C79.8205 81.5604 79.5378 81.2364 79.1901 80.9945C78.8423 80.7526 78.4402 80.6003 78.0195 80.5511C77.5988 80.5019 77.1724 80.5573 76.7782 80.7124C76.384 80.8675 76.0342 81.1175 75.7598 81.4402C75.4854 81.7629 75.2948 82.1484 75.2051 82.5624C75.1154 82.9764 75.1293 83.4061 75.2455 83.8135C75.3617 84.2208 75.5766 84.5932 75.8713 84.8976L75.9075 84.9338Z" fill="#EAEAEA"/>
<path d="M82.2513 86.2023C81.9535 86.0118 81.6192 85.8856 81.2698 85.8318C80.9204 85.778 80.5636 85.7978 80.2223 85.89C79.881 85.9821 79.5627 86.1446 79.2879 86.3669C79.013 86.5892 78.7877 86.8665 78.6263 87.181C78.4426 87.4686 78.3247 87.7931 78.2808 88.1314C78.237 88.4698 78.2683 88.8136 78.3725 89.1385C78.5224 89.6781 78.8441 90.1541 79.289 90.4943C79.7338 90.8345 80.2775 91.0203 80.8375 91.0235C81.0536 91.0581 81.2739 91.0581 81.49 91.0235C82.1431 90.837 82.6977 90.4032 83.0361 89.8144C83.3746 89.2255 83.4701 88.5279 83.3025 87.8698C83.1835 87.1979 82.8062 86.5993 82.2513 86.2023Z" fill="#EAEAEA"/>
<path d="M81.49 92.3289C80.9274 91.9926 80.2577 91.8837 79.6175 92.0243C78.9774 92.1648 78.4149 92.5444 78.045 93.0854C77.6751 93.6264 77.5255 94.2883 77.6267 94.9358C77.728 95.5834 78.0725 96.1679 78.59 96.5701C79.0198 96.8552 79.5243 97.0066 80.04 97.0051C80.4253 97.0066 80.8056 96.919 81.1515 96.7492C81.4973 96.5794 81.7993 96.3321 82.0338 96.0264C82.2551 95.7536 82.4175 95.4378 82.5104 95.099C82.6034 94.7602 82.6251 94.4058 82.5739 94.0582C82.5228 93.7106 82.4001 93.3775 82.2135 93.0798C82.0269 92.7821 81.7806 92.5264 81.49 92.3289Z" fill="#EAEAEA"/>
<path d="M74.0225 96.3161C73.7217 96.4916 73.4591 96.7254 73.2501 97.0039C73.041 97.2824 72.8899 97.5999 72.8054 97.9377C72.721 98.2755 72.705 98.6267 72.7583 98.9708C72.8117 99.3149 72.9334 99.6448 73.1162 99.9411C73.353 100.317 73.6784 100.63 74.0639 100.851C74.4494 101.072 74.8833 101.195 75.3275 101.21C75.7848 101.192 76.2317 101.068 76.6325 100.847C76.9238 100.674 77.1769 100.443 77.3763 100.169C77.5757 99.8949 77.7173 99.583 77.7925 99.2524C77.9654 98.6036 77.8742 97.9128 77.5387 97.3311C77.3759 97.0323 77.1554 96.7686 76.89 96.5555C76.6245 96.3425 76.3195 96.1841 75.9925 96.0897C75.6654 95.9953 75.3229 95.9667 74.9848 96.0056C74.6466 96.0445 74.3196 96.15 74.0225 96.3161Z" fill="#EAEAEA"/>
<path d="M68.6575 98.9623C68.0406 99.2399 67.5577 99.7493 67.3135 100.38C67.0693 101.011 67.0833 101.713 67.3525 102.334C67.5648 102.778 67.8987 103.154 68.3158 103.417C68.7328 103.68 69.2157 103.82 69.7087 103.82C70.0592 103.825 70.4062 103.75 70.7238 103.602C71.0373 103.472 71.321 103.28 71.5579 103.037C71.7947 102.794 71.9795 102.505 72.1012 102.189C72.3552 101.561 72.3552 100.859 72.1012 100.231C71.9607 99.9197 71.7596 99.6394 71.5096 99.4066C71.2596 99.1738 70.9658 98.9931 70.6452 98.875C70.3247 98.7569 69.9839 98.7038 69.6426 98.7188C69.3013 98.7338 68.9665 98.8165 68.6575 98.9623Z" fill="#EAEAEA"/>
<path d="M57.2025 103.167C56.878 103.258 56.5754 103.414 56.3136 103.626C56.0517 103.838 55.8361 104.101 55.68 104.4C55.3546 104.999 55.2766 105.701 55.4625 106.357C55.6202 106.886 55.9462 107.35 56.3911 107.677C56.836 108.004 57.3754 108.177 57.9275 108.17H58.6163C59.2721 107.969 59.8223 107.517 60.1479 106.914C60.4736 106.31 60.5484 105.602 60.3563 104.944C60.1703 104.292 59.7348 103.74 59.1444 103.407C58.5539 103.075 57.8562 102.989 57.2025 103.167Z" fill="#EAEAEA"/>
<path d="M63.0025 101.246C62.6834 101.359 62.3901 101.535 62.1399 101.763C61.8898 101.991 61.6878 102.267 61.5459 102.574C61.4041 102.882 61.3251 103.215 61.3138 103.553C61.3025 103.891 61.359 104.229 61.48 104.545C61.6589 105.035 61.9846 105.458 62.4128 105.757C62.8409 106.055 63.3506 106.214 63.8725 106.212C64.1601 106.265 64.4549 106.265 64.7425 106.212C65.0616 106.099 65.3549 105.923 65.6051 105.695C65.8552 105.467 66.0572 105.191 66.1991 104.884C66.3409 104.576 66.4199 104.244 66.4312 103.905C66.4425 103.567 66.386 103.23 66.265 102.914C66.1622 102.589 65.9959 102.287 65.7757 102.027C65.5555 101.767 65.2859 101.553 64.9824 101.398C64.6788 101.243 64.3475 101.149 64.0076 101.123C63.6678 101.097 63.3261 101.139 63.0025 101.246Z" fill="#EAEAEA"/>
<path d="M51.2575 104.69C50.9276 104.755 50.6151 104.888 50.3402 105.082C50.0654 105.275 49.8345 105.525 49.6625 105.814C49.4853 106.09 49.3651 106.4 49.3091 106.723C49.253 107.047 49.2623 107.379 49.3363 107.699C49.466 108.268 49.7829 108.778 50.2363 109.146C50.6898 109.514 51.2536 109.719 51.8375 109.729H52.3813C52.7073 109.655 53.0157 109.518 53.2887 109.325C53.5618 109.132 53.7941 108.887 53.9725 108.604C54.1509 108.321 54.2719 108.006 54.3285 107.677C54.3851 107.347 54.3763 107.01 54.3025 106.684C54.2287 106.358 54.0914 106.049 53.8985 105.776C53.7055 105.503 53.4607 105.271 53.1779 105.092C52.8952 104.914 52.58 104.793 52.2505 104.736C51.921 104.68 51.5836 104.689 51.2575 104.762V104.69Z" fill="#EAEAEA"/>
<path d="M45.2762 105.777C44.61 105.887 44.0124 106.251 43.6087 106.792C43.4039 107.058 43.2536 107.361 43.1665 107.684C43.0794 108.008 43.0572 108.345 43.1012 108.677C43.1882 109.28 43.4885 109.83 43.9477 110.23C44.4068 110.629 44.9941 110.85 45.6025 110.852H46.0012C46.6674 110.742 47.2651 110.379 47.6687 109.837C47.8734 109.565 48.0218 109.254 48.1053 108.923C48.1888 108.592 48.2058 108.248 48.1552 107.911C48.1046 107.574 47.9875 107.25 47.8106 106.958C47.6337 106.667 47.4007 106.413 47.125 106.212C46.5899 105.83 45.9257 105.674 45.2762 105.777Z" fill="#EAEAEA"/>
<path d="M39.2225 106.43C38.5458 106.486 37.9184 106.806 37.477 107.322C37.0357 107.838 36.8162 108.508 36.8663 109.185C36.9282 109.83 37.2244 110.429 37.6987 110.87C38.173 111.311 38.7926 111.563 39.44 111.578C39.7792 111.559 40.1113 111.472 40.4164 111.323C40.7215 111.173 40.9935 110.964 41.2163 110.708C41.6403 110.181 41.8465 109.512 41.7926 108.837C41.7387 108.163 41.4287 107.535 40.9263 107.083C40.4553 106.667 39.8504 106.436 39.2225 106.43Z" fill="#EAEAEA"/>
<path d="M33.1325 106.647C32.4562 106.657 31.8108 106.932 31.336 107.414C30.8611 107.896 30.5949 108.545 30.595 109.221C30.5861 109.557 30.6458 109.891 30.7704 110.202C30.8951 110.514 31.0821 110.797 31.32 111.034C31.8076 111.501 32.4573 111.761 33.1325 111.759C33.4688 111.764 33.8026 111.701 34.1147 111.576C34.4267 111.451 34.7108 111.265 34.9503 111.028C35.1897 110.792 35.3799 110.511 35.5097 110.201C35.6395 109.89 35.7063 109.558 35.7062 109.221C35.7062 108.539 35.4351 107.884 34.9524 107.401C34.4697 106.919 33.8151 106.647 33.1325 106.647Z" fill="#EAEAEA"/>
<path d="M29 107.844V107.554C28.8748 107.368 28.7289 107.198 28.565 107.046L28.2025 106.756H27.9488L27.55 106.575C27.0872 106.448 26.599 106.448 26.1363 106.575C25.8076 106.685 25.5096 106.872 25.2663 107.119C25.083 107.266 24.9344 107.451 24.8313 107.662V107.844V108.134C24.8234 108.291 24.8234 108.448 24.8313 108.605V108.931C24.8172 109.573 25.0509 110.196 25.4838 110.671C25.7352 110.951 26.0444 111.174 26.39 111.324C26.7044 111.436 27.0349 111.497 27.3688 111.505C28.0432 111.503 28.6916 111.244 29.1813 110.78C29.3398 110.161 29.2756 109.507 29 108.931C29 108.931 29 108.641 29 108.532C29.0313 108.304 29.0313 108.072 29 107.844Z" fill="#EAEAEA"/>
</g>
<defs>
<clipPath id="clip0_20_146">
<rect width="116" height="116" fill="white"/>
</clipPath>
</defs>
</svg>
