<svg width="133" height="133" viewBox="0 0 133 133" fill="none" xmlns="http://www.w3.org/2000/svg">
<g clip-path="url(#clip0_20_184)">
<path d="M113.319 27.0643C111.739 20.7367 108.206 14.9982 103.201 10.6998C97.4664 5.77545 90.1506 3.06376 82.6005 3.06376C76.9363 3.06376 71.5106 4.52442 66.7218 7.31508C61.6504 2.67723 55.001 0.0717773 48.0138 0.0717773C33.0271 0.0717773 20.7781 12.0187 20.2893 26.8882C15.1082 28.3364 10.4171 31.2842 6.83106 35.396C2.42621 40.4474 0 46.9161 0 53.6105C0 68.9063 12.4438 81.3501 27.7396 81.3501H105.26C120.556 81.3501 133 68.9063 133 53.6105C133 41.3467 124.866 30.5732 113.319 27.0643Z" fill="#292929"/>
<path d="M41.8223 89.144V96.5603H28.0295C26.3285 90.5714 20.814 86.1704 14.2871 86.1704C6.4092 86.1704 0 92.5796 0 100.458C0 108.335 6.4092 114.745 14.2871 114.745C20.8145 114.745 26.3293 110.343 28.03 104.353H45.7188C47.8696 104.353 49.6152 102.61 49.6152 100.457V89.144H41.8223Z" fill="#292929"/>
<path d="M70.3965 104.898V89.1436H62.6035V104.898C56.6141 106.599 52.2129 112.114 52.2129 118.641C52.2129 126.519 58.6221 132.928 66.5 132.928C74.3779 132.928 80.7871 126.519 80.7871 118.641C80.7871 112.114 76.3859 106.599 70.3965 104.898Z" fill="#292929"/>
<path d="M118.713 86.1704C112.186 86.1704 106.671 90.5714 104.971 96.5603H91.1777V89.144H83.3848V100.457C83.3848 102.61 85.1304 104.353 87.2812 104.353H104.97C106.671 110.343 112.185 114.745 118.713 114.745C126.591 114.745 133 108.335 133 100.458C133 92.5796 126.591 86.1704 118.713 86.1704Z" fill="#292929"/>
</g>
<defs>
<clipPath id="clip0_20_184">
<rect width="133" height="133" fill="white"/>
</clipPath>
</defs>
</svg>
